<?xml version="1.0" encoding="utf-8"?>
<!-- Generator: Adobe Illustrator 16.0.0, SVG Export Plug-In . SVG Version: 6.00 Build 0)  -->
<!DOCTYPE svg PUBLIC "-//W3C//DTD SVG 1.0//EN" "http://www.w3.org/TR/2001/REC-SVG-20010904/DTD/svg10.dtd">
<svg version="1.0" id="Layer_1" xmlns="http://www.w3.org/2000/svg" xmlns:xlink="http://www.w3.org/1999/xlink" x="0px" y="0px"
	 width="100px" height="100px" viewBox="0 0 100 100" enable-background="new 0 0 100 100" xml:space="preserve">
<path fill="#46C6F1" stroke="#335C5F" stroke-width="1.5" stroke-linecap="round" stroke-linejoin="round" stroke-miterlimit="10" d="
	M74.446,10H52.223c-1.223,0-2.221,0.999-2.221,2.224v14.442h8.333c2.756,0,4.999,2.241,4.999,5v13.89h11.112
	c1.223,0,2.221-1.002,2.221-2.224V12.224C76.667,10.999,75.669,10,74.446,10z"/>
<path fill="#3EAED3" d="M74.446,10h-3.531c1.223,0,2.221,0.999,2.221,2.224v31.108c0,1.222-0.998,2.224-2.221,2.224h3.531
	c1.223,0,2.221-1.002,2.221-2.224V12.224C76.667,10.999,75.669,10,74.446,10z"/>
<path fill="#70929F" stroke="#335C5F" stroke-width="1.5" stroke-linecap="round" stroke-linejoin="round" stroke-miterlimit="10" d="
	M90,80c0,1.223-0.999,2.222-2.221,2.222H38.89c-1.222,0-2.221-0.999-2.221-2.222v-0.003c0-1.219,0.999-2.221,2.221-2.221h48.89
	c1.222,0,2.221,1.002,2.221,2.221V80z"/>
<path fill="#62818C" d="M87.779,77.776H84.25c1.222,0,2.221,1.002,2.221,2.221V80c0,1.223-0.999,2.222-2.221,2.222h3.529
	C89.001,82.222,90,81.223,90,80v-0.003C90,78.778,89.001,77.776,87.779,77.776z"/>
<path fill="#E9EAEF" stroke="#335C5F" stroke-width="1.5" stroke-linecap="round" stroke-linejoin="round" stroke-miterlimit="10" d="
	M85.558,75.555c0,1.22-1.002,2.222-2.224,2.222H43.335c-1.223,0-2.221-1.002-2.221-2.222V51.107c0-1.223,0.999-2.221,2.221-2.221
	h39.999c1.222,0,2.224,0.999,2.224,2.221V75.555z"/>
<path fill="#CACCD1" d="M83.334,48.886h-3.529c1.222,0,2.224,0.999,2.224,2.221v24.447c0,1.22-1.002,2.222-2.224,2.222h3.529
	c1.222,0,2.224-1.002,2.224-2.222V51.107C85.558,49.885,84.556,48.886,83.334,48.886z"/>
<rect x="44.447" y="52.22" fill="#46C6F1" stroke="#335C5F" stroke-width="1.5" stroke-linecap="round" stroke-linejoin="round" stroke-miterlimit="10" width="37.777" height="22.224"/>
<rect x="78.695" y="52.22" fill="#3EAED3" width="3.529" height="22.224"/>
<path fill="#46C6F1" stroke="#335C5F" stroke-width="1.5" stroke-linecap="round" stroke-linejoin="round" stroke-miterlimit="10" d="
	M32.224,87.779c0,1.222-0.999,2.221-2.221,2.221h-8.891c-1.223,0-2.221-0.999-2.221-2.221V70.001c0-1.223,0.999-2.222,2.221-2.222
	h8.891c1.222,0,2.221,0.999,2.221,2.222V87.779z"/>
<path fill="#3EAED3" d="M30.002,67.779h-3.529c1.222,0,2.221,0.999,2.221,2.222v17.778c0,1.222-0.999,2.221-2.221,2.221h3.529
	c1.222,0,2.221-0.999,2.221-2.221V70.001C32.224,68.778,31.225,67.779,30.002,67.779z"/>
<path fill="#E9EAEF" stroke="#335C5F" stroke-width="1.5" stroke-linecap="round" stroke-linejoin="round" stroke-miterlimit="10" d="
	M32.224,72.226v-2.225c0-1.223-0.999-2.222-2.221-2.222h-8.891c-1.223,0-2.221,0.999-2.221,2.222v2.225H32.224z"/>
<path fill="#E9EAEF" stroke="#335C5F" stroke-width="1.5" stroke-linecap="round" stroke-linejoin="round" stroke-miterlimit="10" d="
	M18.891,85.555v2.225c0,1.222,0.999,2.221,2.221,2.221h8.891c1.222,0,2.221-0.999,2.221-2.221v-2.225H18.891z"/>
<path fill="#CACCD1" d="M30.002,67.779h-3.529c1.222,0,2.221,0.999,2.221,2.222v2.225h3.529v-2.225
	C32.224,68.778,31.225,67.779,30.002,67.779z"/>
<path fill="#CACCD1" d="M28.694,85.555v2.225c0,1.222-0.999,2.221-2.221,2.221h3.529c1.222,0,2.221-0.999,2.221-2.221v-2.225H28.694
	z"/>
<path fill="#E9EAEF" stroke="#335C5F" stroke-width="1.5" stroke-linecap="round" stroke-linejoin="round" stroke-miterlimit="10" d="
	M63.334,41.111v4.445h11.112c1.223,0,2.221-1.002,2.221-2.224v-2.221H63.334z"/>
<path fill="#CACCD1" d="M73.136,41.111v2.221c0,1.222-0.998,2.224-2.221,2.224h3.531c1.223,0,2.221-1.002,2.221-2.224v-2.221H73.136
	z"/>
<path fill="#70929F" stroke="#335C5F" stroke-width="1.5" stroke-linecap="round" stroke-linejoin="round" stroke-miterlimit="10" d="
	M41.114,73.334v-10H29.999c0,1.534-0.194,3.02-0.538,4.445h0.542c1.222,0,2.221,0.999,2.221,2.222v3.333H41.114z"/>
<rect x="38.762" y="63.334" fill="#62818C" width="2.353" height="10"/>
<path fill="#62818C" d="M30.002,65.427h-0.126c-0.092,0.8-0.23,1.585-0.415,2.353h0.542c1.222,0,2.221,0.999,2.221,2.222v3.333
	h2.354v-3.333C34.578,67.479,32.525,65.427,30.002,65.427z"/>
<path fill="#E9EAEF" stroke="#335C5F" stroke-width="1.5" stroke-linecap="round" stroke-linejoin="round" stroke-miterlimit="10" d="
	M41.114,58.331H10c0,2.763,2.244,5.003,5,5.003h26.114V58.331z"/>
<rect x="38.762" y="58.331" fill="#CACCD1" width="2.353" height="5.003"/>
<path fill="#3EAED3" d="M58.335,24.313h-8.333v2.353h8.333c2.756,0,4.999,2.241,4.999,5v13.89h2.353v-13.89
	C65.687,27.611,62.39,24.313,58.335,24.313z"/>
<rect x="63.334" y="41.111" fill="#CACCD1" width="2.353" height="4.445"/>
<path fill="#46C6F1" stroke="#335C5F" stroke-width="1.5" stroke-linecap="round" stroke-linejoin="round" stroke-miterlimit="10" d="
	M41.114,51.107c0-1.223,0.999-2.221,2.221-2.221h19.999v-17.22c0-2.759-2.243-5-4.999-5H15c-2.756,0-5,2.241-5,5v26.665h31.114
	V51.107z"/>
<path fill="#3EAED3" d="M43.335,46.533c-2.521,0-4.574,2.052-4.574,4.574v7.224h2.353v-7.224c0-1.223,0.999-2.221,2.221-2.221
	h19.999v-2.353H43.335z"/>
<path fill="none" stroke="#335C5F" stroke-width="1.5" stroke-linecap="round" stroke-linejoin="round" stroke-miterlimit="10" d="
	M74.446,10H52.223c-1.223,0-2.221,0.999-2.221,2.224v14.442h8.333c2.756,0,4.999,2.241,4.999,5v13.89h11.112
	c1.223,0,2.221-1.002,2.221-2.224V12.224C76.667,10.999,75.669,10,74.446,10z"/>
<path fill="none" stroke="#335C5F" stroke-width="1.5" stroke-linecap="round" stroke-linejoin="round" stroke-miterlimit="10" d="
	M90,80c0,1.223-0.999,2.222-2.221,2.222H38.89c-1.222,0-2.221-0.999-2.221-2.222v-0.003c0-1.219,0.999-2.221,2.221-2.221h48.89
	c1.222,0,2.221,1.002,2.221,2.221V80z"/>
<path fill="none" stroke="#335C5F" stroke-width="1.5" stroke-linecap="round" stroke-linejoin="round" stroke-miterlimit="10" d="
	M85.558,75.555c0,1.22-1.002,2.222-2.224,2.222H43.335c-1.223,0-2.221-1.002-2.221-2.222V51.107c0-1.223,0.999-2.221,2.221-2.221
	h39.999c1.222,0,2.224,0.999,2.224,2.221V75.555z"/>
<rect x="44.447" y="52.22" fill="none" stroke="#335C5F" stroke-width="1.5" stroke-linecap="round" stroke-linejoin="round" stroke-miterlimit="10" width="37.777" height="22.224"/>
<path fill="none" stroke="#335C5F" stroke-width="1.5" stroke-linecap="round" stroke-linejoin="round" stroke-miterlimit="10" d="
	M32.224,87.779c0,1.222-0.999,2.221-2.221,2.221h-8.891c-1.223,0-2.221-0.999-2.221-2.221V70.001c0-1.223,0.999-2.222,2.221-2.222
	h8.891c1.222,0,2.221,0.999,2.221,2.222V87.779z"/>
<path fill="none" stroke="#335C5F" stroke-width="1.5" stroke-linecap="round" stroke-linejoin="round" stroke-miterlimit="10" d="
	M32.224,72.226v-2.225c0-1.223-0.999-2.222-2.221-2.222h-8.891c-1.223,0-2.221,0.999-2.221,2.222v2.225H32.224z"/>
<path fill="none" stroke="#335C5F" stroke-width="1.5" stroke-linecap="round" stroke-linejoin="round" stroke-miterlimit="10" d="
	M18.891,85.555v2.225c0,1.222,0.999,2.221,2.221,2.221h8.891c1.222,0,2.221-0.999,2.221-2.221v-2.225H18.891z"/>
<path fill="none" stroke="#335C5F" stroke-width="1.5" stroke-linecap="round" stroke-linejoin="round" stroke-miterlimit="10" d="
	M63.334,41.111v4.445h11.112c1.223,0,2.221-1.002,2.221-2.224v-2.221H63.334z"/>
<path fill="none" stroke="#335C5F" stroke-width="1.5" stroke-linecap="round" stroke-linejoin="round" stroke-miterlimit="10" d="
	M41.114,73.334v-10H29.999c0,1.534-0.194,3.02-0.538,4.445h0.542c1.222,0,2.221,0.999,2.221,2.222v3.333H41.114z"/>
<path fill="none" stroke="#335C5F" stroke-width="1.5" stroke-linecap="round" stroke-linejoin="round" stroke-miterlimit="10" d="
	M41.114,58.331H10c0,2.763,2.244,5.003,5,5.003h26.114V58.331z"/>
<path fill="none" stroke="#335C5F" stroke-width="1.5" stroke-linecap="round" stroke-linejoin="round" stroke-miterlimit="10" d="
	M41.114,51.107c0-1.223,0.999-2.221,2.221-2.221h19.999v-17.22c0-2.759-2.243-5-4.999-5H15c-2.756,0-5,2.241-5,5v26.665h31.114
	V51.107z"/>
</svg>
