<?xml version="1.0" encoding="UTF-8"?><svg xmlns="http://www.w3.org/2000/svg" xmlns:xlink="http://www.w3.org/1999/xlink" contentScriptType="text/ecmascript" width="450" zoomAndPan="magnify" contentStyleType="text/css" viewBox="0 0 450 449.999984" height="449.999984" preserveAspectRatio="xMidYMid meet" version="1.0"><defs><clipPath id="clip-0"><path d="M 238.246094 325.8125 L 397 325.8125 L 397 439 L 238.246094 439 Z M 238.246094 325.8125 " clip-rule="nonzero"/></clipPath><clipPath id="clip-1"><path d="M 237.300781 324 L 393 324 L 393 439.207031 L 237.300781 439.207031 Z M 237.300781 324 " clip-rule="nonzero"/></clipPath><clipPath id="clip-2"><path d="M 317.726562 219.792969 L 449.523438 219.792969 L 449.523438 358.945312 L 317.726562 358.945312 Z M 317.726562 219.792969 " clip-rule="nonzero"/></clipPath></defs><path fill="rgb(6.269836%, 5.879211%, 5.099487%)" d="M 126.378906 119.4375 L 133.042969 121.203125 L 132.804688 122.117188 L 126.140625 120.351562 Z M 96 138.914062 L 96.871094 139.277344 L 94.585938 144.703125 L 93.714844 144.335938 Z M 86.375 134.070312 L 87.109375 134.664062 L 83.527344 139.125 L 82.789062 138.53125 Z M 80.859375 128.023438 L 81.347656 128.832031 L 76.234375 131.90625 L 75.746094 131.089844 Z M 69.539062 123.992188 L 75.832031 121.761719 L 76.148438 122.65625 L 69.851562 124.886719 Z M 103.511719 138.609375 L 104.457031 138.609375 L 104.457031 144.519531 L 103.511719 144.519531 Z M 124.390625 125.085938 L 130.710938 127.996094 L 130.316406 128.859375 L 123.996094 125.949219 Z M 113.128906 136.039062 L 115.234375 141.261719 L 114.355469 141.617188 L 112.253906 136.394531 Z M 119.132812 131.9375 L 122.988281 136.835938 L 122.246094 137.421875 L 118.390625 132.523438 Z M 141.417969 211.230469 L 136.585938 218.847656 L 135.785156 218.339844 L 140.617188 210.726562 Z M 181.269531 220.714844 C 180.921875 222.773438 164.007812 269.203125 144.453125 285.046875 L 143.859375 284.3125 C 162.789062 268.96875 180.007812 222.519531 180.339844 220.554688 C 180.632812 218.851562 175.722656 196.894531 172.351562 182.554688 L 172.335938 182.492188 L 172.339844 182.425781 C 172.476562 178.257812 173.597656 145.390625 174.367188 136.699219 L 160.058594 157.433594 C 159.363281 160.308594 148.84375 203.820312 145.609375 209.128906 C 145.777344 210.816406 146.339844 216.503906 146.941406 223.019531 C 151.582031 205.460938 170.355469 205.242188 170.566406 205.242188 C 170.566406 205.242188 170.566406 205.242188 170.570312 205.242188 L 170.566406 206.1875 C 169.738281 206.1875 150.253906 206.425781 147.234375 226.226562 C 147.246094 226.324219 147.253906 226.425781 147.261719 226.523438 C 156.066406 211.976562 169.585938 218.097656 169.726562 218.164062 L 169.320312 219.023438 C 168.765625 218.761719 155.742188 212.898438 147.410156 228.171875 C 148.234375 237.414062 148.976562 246.679688 148.726562 247.804688 C 148.214844 250.109375 140.664062 254.679688 139.804688 255.195312 L 139.320312 254.382812 C 142.429688 252.519531 147.480469 249.039062 147.804688 247.597656 C 148.011719 246.664062 147.34375 238.089844 146.460938 228.21875 L 146.335938 228.15625 C 146.371094 228.089844 146.40625 228.035156 146.4375 227.972656 C 145.875 221.621094 145.21875 214.757812 144.652344 209.058594 L 144.636719 208.886719 L 144.734375 208.742188 C 147.789062 204.257812 159.046875 157.601562 159.15625 157.128906 L 159.226562 156.972656 L 174.515625 134.816406 C 172.132812 132.785156 144.773438 122.277344 126.519531 115.550781 L 126.847656 114.664062 C 138.035156 118.785156 174.605469 132.402344 175.511719 134.550781 C 175.578125 134.710938 175.578125 134.878906 175.511719 135.027344 C 175 136.421875 173.902344 164.097656 173.289062 182.398438 C 174.214844 186.351562 181.6875 218.285156 181.269531 220.714844 Z M 60.957031 226.753906 C 55.300781 228.558594 50.207031 228.160156 45.816406 225.546875 C 35.984375 219.699219 32.546875 204.539062 32.128906 202.519531 C 37.425781 193.601562 43.445312 187.964844 44.339844 187.152344 C 53.074219 186.363281 59.949219 188.097656 64.78125 192.289062 C 70.867188 197.574219 71.683594 205.160156 71.765625 206.195312 C 71.210938 207.308594 66.828125 216.074219 60.957031 226.753906 Z M 65.414062 191.582031 C 60.347656 187.183594 53.179688 185.375 44.097656 186.222656 L 43.945312 186.234375 L 43.832031 186.339844 C 43.71875 186.433594 38.179688 191.351562 32.824219 199.617188 C 29.210938 200.460938 20.191406 214.777344 18.371094 217.726562 L 19.179688 218.222656 C 22.78125 212.394531 28.769531 203.667969 31.828125 201.199219 C 26.84375 209.332031 22.328125 220.328125 22.894531 232.980469 L 23.839844 232.9375 C 23.328125 221.539062 27.027344 211.503906 31.425781 203.742188 C 32.386719 207.871094 36.066406 220.847656 45.328125 226.359375 C 48.082031 227.996094 51.089844 228.820312 54.316406 228.820312 C 56.238281 228.820312 58.242188 228.511719 60.3125 227.929688 C 50.160156 246.308594 35.953125 269.644531 29.148438 269.90625 C 17.300781 270.378906 11.773438 259.824219 6.667969 242.679688 C 1.238281 224.441406 16.117188 201.785156 16.269531 201.558594 L 16.363281 201.421875 L 16.347656 201.257812 C 14.796875 181.371094 12.359375 143.140625 14.03125 138.121094 C 35.246094 138.554688 45.671875 182.109375 45.777344 182.554688 L 46.695312 182.339844 C 46.269531 180.519531 36.207031 138.46875 14.714844 137.191406 C 19.574219 133.101562 51.140625 122.460938 72.382812 115.949219 L 72.105469 115.042969 C 66.34375 116.8125 15.714844 132.457031 13.28125 137.429688 C 10.875 142.335938 15.074219 197.101562 15.394531 201.171875 C 14.132812 203.128906 0.433594 225.042969 5.761719 242.949219 C 10.878906 260.15625 16.496094 270.871094 28.398438 270.871094 C 28.65625 270.871094 28.917969 270.863281 29.179688 270.855469 C 40.921875 270.402344 71.378906 209.109375 72.671875 206.503906 L 72.722656 206.390625 L 72.71875 206.269531 C 72.703125 205.914062 72.230469 197.511719 65.414062 191.582031 " fill-opacity="1" fill-rule="nonzero"/><path fill="rgb(24.308777%, 35.688782%, 69.799805%)" d="M 83.761719 104.863281 L 72.246094 115.5 C 72.246094 115.5 85.617188 145.386719 106.953125 138.539062 C 128.296875 131.691406 126.683594 115.105469 126.683594 115.105469 L 114.507812 108.027344 Z M 56.945312 181.722656 C 56.945312 181.722656 53.683594 174.105469 47.160156 180.027344 C 43.828125 183.054688 41.820312 186.480469 40.652344 189.101562 C 39.535156 191.613281 39.949219 194.535156 41.695312 196.65625 C 46.609375 202.625 57.800781 214.078125 66.582031 207.214844 C 78.175781 198.152344 75.425781 194.046875 56.945312 181.722656 Z M 137.875 263.492188 C 153.660156 281.214844 155.4375 379.921875 155.4375 379.921875 L 45.832031 407.375 C 45.832031 407.375 34.15625 335.675781 33.191406 311.453125 C 32.226562 287.226562 47.039062 263.492188 47.039062 263.492188 L 137.875 263.492188 " fill-opacity="1" fill-rule="nonzero"/><path fill="rgb(92.939758%, 66.668701%, 59.609985%)" d="M 62.945312 199.945312 L 71.585938 183.753906 C 99.558594 171.425781 105.949219 161.519531 103.652344 160.285156 C 101.359375 159.050781 88.636719 166.476562 88.636719 166.476562 C 106.65625 156.027344 111.519531 153.671875 109.34375 150.828125 C 107.175781 147.976562 99.785156 153.058594 99.785156 153.058594 C 110.417969 147.621094 111.542969 144.179688 108.96875 143.148438 C 106.289062 142.082031 81.910156 153.058594 81.910156 153.058594 C 81.910156 153.058594 95.195312 140.492188 98.339844 137.164062 C 101.476562 133.832031 97.855469 129.371094 94.59375 132.636719 C 91.332031 135.898438 66.324219 156.683594 66.324219 156.683594 C 65.484375 155.839844 69.347656 148.226562 71.039062 143.390625 C 72.730469 138.558594 68.257812 130.945312 65.964844 137.164062 C 63.667969 143.378906 56.542969 154.507812 55.214844 159.222656 C 53.886719 163.933594 55.214844 178.558594 55.214844 178.558594 L 48.8125 189.070312 C 54.128906 201.882812 62.945312 199.945312 62.945312 199.945312 Z M 130.394531 79.097656 C 129.289062 83.6875 124.460938 102.894531 121.234375 104.789062 C 119.882812 105.59375 116.492188 105.257812 115.527344 105.464844 C 113.867188 105.824219 114.773438 107.890625 114.441406 109.578125 C 114.210938 110.769531 113.484375 111.8125 112.445312 112.4375 C 108.578125 114.742188 98.34375 118.816406 85.621094 107.703125 C 84.796875 106.984375 84.257812 105.980469 84.144531 104.890625 L 82.289062 87.613281 C 82.109375 85.949219 80.984375 84.511719 79.394531 84.007812 C 77.285156 83.335938 74.179688 81.550781 71.257812 76.824219 C 68.199219 71.871094 70.042969 67.832031 73.214844 66.253906 C 73.214844 66.253906 84.125 72.964844 82.675781 68.25 C 81.230469 63.535156 85.449219 45.402344 85.449219 45.402344 L 82.675781 42.507812 L 87.265625 44.195312 C 99.101562 36.828125 120.476562 42.027344 124.585938 42.867188 C 128.703125 43.710938 129.734375 51.707031 129.734375 51.707031 L 129.722656 51.71875 C 129.957031 53.566406 130.015625 55.457031 129.769531 57.382812 C 128.53125 66.875 129.882812 74.65625 130.425781 77.222656 C 130.558594 77.847656 130.546875 78.480469 130.394531 79.097656 " fill-opacity="1" fill-rule="nonzero"/><path fill="rgb(100%, 100%, 100%)" d="M 122.617188 87.078125 C 122.617188 87.078125 115.8125 91.589844 100.429688 87.882812 C 100.429688 87.882812 108.886719 96.179688 115.328125 94.570312 C 121.769531 92.960938 122.617188 87.078125 122.617188 87.078125 Z M 105.34375 67.078125 C 105.34375 67.078125 99.019531 62.363281 90.851562 65.304688 C 90.851562 65.304688 91.890625 70.671875 97.292969 71.589844 C 105.34375 72.960938 105.34375 67.078125 105.34375 67.078125 Z M 122.617188 70.621094 C 117.34375 71.832031 117.261719 66.917969 117.261719 66.917969 C 121.367188 61.921875 127.96875 63.617188 127.96875 63.617188 C 127.96875 63.617188 127.890625 69.414062 122.617188 70.621094 " fill-opacity="1" fill-rule="nonzero"/><path fill="rgb(6.269836%, 5.879211%, 5.099487%)" d="M 102.230469 165.300781 L 101.742188 164.484375 C 101.460938 164.652344 100.550781 165.078125 100.050781 164.84375 C 99.96875 164.808594 99.722656 164.691406 99.628906 164.121094 C 99.394531 162.710938 102.855469 161.65625 104.085938 161.398438 L 103.890625 160.46875 C 103.3125 160.59375 98.273438 161.726562 98.695312 164.273438 C 98.84375 165.160156 99.300781 165.539062 99.652344 165.703125 C 99.894531 165.8125 100.152344 165.859375 100.40625 165.859375 C 101.265625 165.859375 102.113281 165.371094 102.230469 165.300781 Z M 106.378906 155.457031 C 106.34375 155.457031 105.492188 155.433594 105.492188 153.984375 C 105.492188 152.71875 108.398438 151.777344 109.414062 151.546875 L 109.203125 150.621094 C 108.726562 150.730469 104.546875 151.738281 104.546875 153.984375 C 104.546875 155.886719 105.742188 156.398438 106.375 156.402344 Z M 106.742188 149.355469 L 106.707031 148.410156 C 106.695312 148.40625 105.867188 148.433594 105.398438 147.980469 C 105.179688 147.769531 105.074219 147.480469 105.074219 147.09375 C 105.074219 146.046875 107.632812 144.75 109.457031 144.164062 L 109.164062 143.265625 C 108.648438 143.425781 104.125 144.941406 104.125 147.09375 C 104.125 147.742188 104.332031 148.269531 104.742188 148.667969 C 105.417969 149.3125 106.425781 149.359375 106.679688 149.359375 C 106.714844 149.359375 106.734375 149.359375 106.742188 149.355469 Z M 98.03125 138.046875 L 97.835938 137.117188 C 97.765625 137.136719 96.085938 137.46875 95.625 136.128906 C 95.265625 135.085938 97.128906 133.144531 98.386719 132.164062 L 97.804688 131.417969 C 97.417969 131.714844 94.035156 134.421875 94.730469 136.433594 C 95.1875 137.765625 96.410156 138.113281 97.339844 138.113281 C 97.597656 138.113281 97.835938 138.085938 98.03125 138.046875 Z M 67.808594 141.003906 C 70.363281 138.984375 68.566406 134.820312 68.488281 134.640625 L 67.625 135.023438 C 67.636719 135.058594 69.207031 138.695312 67.21875 140.261719 C 66.527344 140.8125 65.921875 141.050781 65.484375 140.9375 C 65.078125 140.839844 64.902344 140.460938 64.894531 140.449219 L 64.023438 140.816406 C 64.152344 141.117188 64.546875 141.675781 65.238281 141.851562 C 65.390625 141.894531 65.546875 141.910156 65.707031 141.910156 C 66.335938 141.910156 67.042969 141.609375 67.808594 141.003906 Z M 71.816406 184.167969 L 71.355469 183.339844 L 69.359375 184.445312 L 69.820312 185.273438 Z M 106.257812 156.582031 L 105.765625 155.777344 L 84.5625 168.75 L 85.054688 169.554688 Z M 104.226562 151.132812 L 103.746094 150.316406 L 81.667969 163.347656 L 82.148438 164.160156 Z M 78.507812 156.542969 L 77.898438 155.816406 L 81.605469 152.699219 L 82.214844 153.421875 L 78.507812 156.542969 " fill-opacity="1" fill-rule="nonzero"/><path fill="rgb(6.269836%, 5.879211%, 5.099487%)" d="M 150.988281 309.445312 C 146.515625 273.640625 138.578125 263.601562 138.242188 263.191406 L 137.507812 263.792969 C 137.589844 263.890625 145.609375 274.027344 150.050781 309.5625 C 154.503906 345.199219 154.472656 378.742188 154.472656 379.078125 L 155.417969 379.078125 C 155.417969 378.746094 155.449219 345.144531 150.988281 309.445312 Z M 65.902344 265.878906 L 45.898438 290.128906 L 48.011719 293.371094 L 68.804688 268.363281 Z M 65.785156 264.53125 L 70.128906 268.246094 L 47.917969 294.960938 L 44.722656 290.0625 Z M 132.359375 318.171875 L 104.070312 339.125 L 128.988281 328.234375 L 129.371094 329.101562 L 100.933594 341.53125 L 105.601562 392.480469 L 104.660156 392.570312 L 99.933594 341.015625 L 112.28125 331.871094 L 112.28125 269.9375 L 113.226562 269.9375 L 113.226562 331.167969 L 131.796875 317.410156 L 132.359375 318.171875 " fill-opacity="1" fill-rule="nonzero"/><path fill="rgb(100%, 100%, 100%)" d="M 117.707031 254.789062 L 117.707031 269.765625 C 110.675781 270.339844 103.257812 270.460938 95.960938 270.332031 L 95.960938 254.789062 L 117.707031 254.789062 " fill-opacity="1" fill-rule="nonzero"/><path fill="rgb(6.269836%, 5.879211%, 5.099487%)" d="M 114.441406 257.609375 L 100.429688 257.609375 L 100.429688 266.917969 L 114.441406 266.917969 Z M 117.707031 254.789062 L 117.707031 269.765625 C 125.757812 269.101562 133.300781 267.859375 139.566406 265.777344 L 139.566406 254.789062 Z M 46.882812 254.789062 L 95.960938 254.789062 L 95.960938 270.332031 C 70.066406 269.800781 45.71875 265.777344 45.71875 265.777344 L 46.882812 254.789062 " fill-opacity="1" fill-rule="nonzero"/><path fill="rgb(6.269836%, 5.879211%, 5.099487%)" d="M 109.277344 128.246094 C 109.277344 127.257812 108.707031 126.421875 108.027344 126.421875 C 107.34375 126.421875 106.769531 127.257812 106.769531 128.246094 C 106.769531 129.234375 107.34375 130.066406 108.027344 130.066406 C 108.707031 130.066406 109.277344 129.234375 109.277344 128.246094 Z M 110.226562 128.246094 C 110.226562 129.773438 109.238281 131.015625 108.027344 131.015625 C 106.8125 131.015625 105.824219 129.773438 105.824219 128.246094 C 105.824219 126.722656 106.8125 125.476562 108.027344 125.476562 C 109.238281 125.476562 110.226562 126.722656 110.226562 128.246094 Z M 122.683594 113.15625 L 116.75 132.414062 L 103.027344 117.796875 L 106.011719 138.761719 L 105.074219 138.894531 L 102.054688 117.695312 L 90.433594 135.539062 L 74.441406 113.964844 L 75.203125 113.402344 L 90.378906 133.882812 L 102.28125 115.621094 L 116.324219 130.582031 L 121.78125 112.878906 L 122.683594 113.15625 " fill-opacity="1" fill-rule="nonzero"/><path fill="rgb(6.269836%, 5.879211%, 5.099487%)" d="M 134.792969 41.003906 C 133.25 46.386719 129.734375 51.707031 129.734375 51.707031 C 129.734375 51.707031 128.703125 43.710938 124.585938 42.867188 C 120.476562 42.027344 99.101562 36.828125 87.265625 44.195312 L 82.675781 42.507812 L 85.449219 45.402344 C 85.449219 45.402344 81.230469 63.535156 82.675781 68.25 C 84.125 72.964844 73.214844 66.253906 73.214844 66.253906 C 70.160156 60.511719 64.425781 48.230469 67.699219 42.140625 C 71.917969 34.28125 80.019531 37.3125 80.480469 37.492188 C 80.199219 37.285156 77.273438 34.765625 88.46875 26.671875 C 93.300781 23.1875 98.953125 22.808594 104.835938 23.703125 C 91.746094 27.355469 86.074219 39.621094 86.007812 39.777344 L 86.871094 40.160156 C 86.941406 40.007812 93.046875 26.839844 107.214844 24.125 C 110.445312 24.777344 113.726562 25.742188 116.953125 26.71875 C 104.28125 29.445312 94.289062 36.097656 94.148438 36.191406 L 94.675781 36.976562 C 94.824219 36.878906 105.59375 29.707031 118.859375 27.296875 C 122.628906 28.4375 126.304688 29.519531 129.734375 30.0625 C 135.429688 30.960938 136.125 35.238281 135.113281 39.757812 C 133.820312 37.96875 132.199219 36.570312 130.253906 35.582031 C 121.96875 31.371094 110.902344 35.953125 110.433594 36.148438 L 110.800781 37.019531 C 110.914062 36.972656 121.929688 32.414062 129.824219 36.425781 C 131.867188 37.460938 133.515625 39.007812 134.792969 41.003906 Z M 102.109375 88.746094 C 104.710938 90.941406 110.578125 95.265625 115.214844 94.109375 C 119.757812 92.976562 121.367188 89.664062 121.90625 87.992188 C 119.628906 89.039062 113.320312 91.097656 102.109375 88.746094 Z M 113.570312 95.253906 C 107.339844 95.253906 100.417969 88.535156 100.101562 88.21875 L 98.878906 87.023438 L 100.539062 87.421875 C 115.546875 91.039062 122.289062 86.726562 122.355469 86.683594 L 123.234375 86.101562 L 123.082031 87.144531 C 123.074219 87.207031 122.117188 93.359375 115.445312 95.027344 C 114.832031 95.183594 114.207031 95.253906 113.570312 95.253906 Z M 109.269531 83.386719 L 108.90625 82.515625 L 111.964844 81.222656 L 112.332031 82.097656 Z M 115.027344 83.714844 L 114.421875 82.988281 C 115.632812 81.980469 117.554688 80.011719 117.554688 79 C 117.554688 77.917969 115.023438 73.003906 113.425781 70.15625 L 114.25 69.695312 C 114.6875 70.472656 118.5 77.316406 118.5 79 C 118.5 80.785156 115.378906 83.421875 115.027344 83.714844 Z M 114.652344 110.496094 L 113.714844 110.371094 L 114.269531 106.28125 C 111.878906 105.824219 100.84375 103.640625 95.15625 100.941406 C 88.742188 97.898438 86.382812 88.535156 86.28125 88.140625 L 87.203125 87.910156 C 87.222656 88.003906 89.558594 97.234375 95.5625 100.085938 C 101.710938 103.003906 114.75 105.40625 114.882812 105.429688 L 115.324219 105.511719 Z M 79.910156 74.839844 C 76.859375 70.375 72.3125 72.210938 72.269531 72.230469 L 71.902344 71.359375 C 71.957031 71.339844 77.210938 69.210938 80.6875 74.300781 Z M 126.65625 55.175781 L 128.1875 58.078125 C 122.332031 56.121094 117.023438 60.230469 117.023438 60.230469 L 117.023438 57.652344 C 121.527344 52.660156 126.65625 55.175781 126.65625 55.175781 Z M 105.191406 60.554688 C 102.464844 57.652344 90.851562 59.34375 90.851562 59.34375 L 93.261719 56.605469 C 102.121094 53.382812 105.625 58.457031 105.625 58.457031 Z M 96.703125 71.46875 C 98.816406 63.453125 105.191406 68.066406 105.191406 68.066406 C 103.792969 73.488281 96.703125 71.46875 96.703125 71.46875 Z M 90.851562 65.667969 L 90.851562 64.660156 C 99.066406 61.242188 105.625 67.078125 105.625 67.078125 C 97.574219 62.480469 90.851562 65.667969 90.851562 65.667969 Z M 128.453125 63.339844 C 128.453125 63.339844 126.921875 62.003906 123.460938 62.769531 C 120 63.535156 117.023438 66.796875 117.023438 66.796875 C 117.023438 66.796875 123.863281 62.523438 128.132812 63.976562 Z M 120.722656 70.800781 C 121.328125 63.613281 127.574219 65.835938 127.574219 65.835938 C 126.25 71.207031 120.722656 70.800781 120.722656 70.800781 " fill-opacity="1" fill-rule="nonzero"/><path fill="rgb(83.529663%, 47.44873%, 38.038635%)" d="M 212.488281 168.136719 C 199.382812 165.796875 190.089844 143.816406 186.0625 132.230469 C 184.972656 135.355469 184.253906 138.789062 183.976562 142.566406 C 180.597656 188.488281 230.996094 251.085938 230.996094 251.085938 L 235.375 249.648438 Z M 408.699219 232.695312 L 381.839844 244.554688 C 381.839844 244.554688 355.742188 218.238281 349.949219 203 C 349.949219 203 336.316406 196.242188 327.035156 190.246094 C 329.863281 171.484375 346.25 162.523438 357.125 158.59375 C 366.726562 174.117188 374.34375 188.128906 374.34375 188.128906 C 374.34375 188.128906 398.84375 204.882812 408.699219 232.695312 " fill-opacity="1" fill-rule="nonzero"/><path fill="rgb(6.269836%, 5.879211%, 5.099487%)" d="M 350.253906 67.421875 C 346.046875 75.351562 341.382812 77.910156 338.90625 78.734375 C 336.398438 73.59375 346.882812 75.9375 346.804688 60.601562 C 346.78125 55.625 345.804688 50.804688 344.085938 46.515625 C 348.414062 51.273438 354.320312 59.753906 350.253906 67.421875 Z M 295.972656 38.488281 L 295.03125 38.597656 C 294.101562 30.234375 302.847656 27.339844 302.9375 27.3125 L 303.222656 28.214844 C 302.890625 28.320312 295.128906 30.90625 295.972656 38.488281 Z M 289.742188 37.96875 L 288.824219 37.726562 C 288.835938 37.683594 289.933594 33.257812 287.339844 29.496094 C 285.3125 26.566406 281.617188 24.785156 276.355469 24.207031 L 276.457031 23.265625 C 282.011719 23.875 285.933594 25.796875 288.121094 28.972656 C 290.960938 33.089844 289.792969 37.769531 289.742188 37.96875 Z M 251.265625 24.53125 C 253.292969 22.054688 256.277344 19.644531 260.628906 17.722656 C 272.789062 12.359375 278.59375 17.148438 280.617188 19.632812 C 278.910156 19.785156 277.179688 19.648438 275.484375 19.191406 C 268.023438 17.15625 258.542969 19.265625 251.265625 24.53125 Z M 234.222656 73.839844 C 229.070312 79.53125 227.78125 86.046875 228.097656 91.855469 C 227.777344 89.949219 227.652344 88 227.742188 86.042969 C 227.988281 80.785156 229.78125 76.25 232.421875 74.21875 C 236.40625 71.148438 239.394531 66.339844 241.105469 63.109375 C 240.53125 65.792969 238.699219 68.894531 234.222656 73.839844 Z M 342.914062 43.90625 C 339.089844 36.257812 332.765625 30.863281 325.328125 30.421875 C 313.140625 29.695312 316.128906 21.964844 303.082031 16.648438 C 296.089844 13.796875 290.371094 15.527344 286.570312 17.746094 C 285.039062 18.640625 283.382812 19.214844 281.679688 19.496094 C 279.792969 17.019531 273.53125 10.996094 260.25 16.859375 C 254.160156 19.546875 250.652344 23.167969 248.652344 26.648438 C 244.257812 30.628906 241.042969 35.921875 240.226562 42.265625 C 238.929688 52.304688 241.140625 56.496094 241.304688 60.574219 C 240.042969 63.253906 236.640625 69.773438 231.84375 73.464844 C 228.992188 75.667969 227.054688 80.46875 226.800781 86 C 226.585938 90.621094 227.464844 95.105469 229.292969 99.113281 C 230.722656 104.378906 232.863281 108.003906 232.863281 108.003906 L 242.484375 110.472656 C 240.019531 104.925781 232.207031 85.351562 241.722656 79.800781 C 252.273438 73.644531 256.636719 60.019531 256.910156 52.882812 C 256.953125 51.671875 256.917969 50.386719 256.882812 49.019531 C 256.710938 42.265625 256.496094 33.851562 266.738281 29.421875 C 270.128906 27.953125 273.015625 27.917969 275.3125 29.3125 C 279.785156 32.03125 280.335938 39.15625 280.355469 39.453125 L 279.414062 39.523438 C 279.410156 39.453125 278.871094 32.582031 274.816406 30.121094 C 272.800781 28.898438 270.207031 28.953125 267.109375 30.292969 C 257.457031 34.46875 257.65625 42.1875 257.828125 49 C 257.867188 50.375 257.898438 51.675781 257.855469 52.917969 C 257.574219 60.257812 253.074219 74.269531 242.199219 80.617188 C 233.050781 85.957031 241.792969 106.636719 243.660156 110.777344 L 248.109375 111.917969 C 247.519531 106.160156 246.699219 95.980469 247.613281 90.867188 C 248.949219 83.359375 257.273438 82.886719 257.355469 82.882812 L 257.398438 83.828125 C 257.089844 83.847656 249.75 84.273438 248.542969 91.035156 C 247.644531 96.074219 248.511719 106.519531 249.085938 112.171875 L 328.410156 132.535156 C 327.164062 128.207031 324.65625 118.113281 324.855469 107.632812 C 325.015625 99.085938 328.730469 95.804688 331.441406 93.40625 C 333.265625 91.792969 334.582031 90.628906 334.496094 88.507812 C 334.402344 86.21875 333.308594 84.609375 332.042969 82.738281 C 330.222656 80.046875 328.160156 77.003906 328.820312 71.242188 C 329.21875 67.769531 331.035156 64.753906 332.792969 61.835938 C 336 56.515625 339.03125 51.488281 333.96875 43.855469 C 332.167969 41.136719 329.742188 39.496094 326.765625 38.976562 C 318.851562 37.601562 309.480469 44.503906 309.390625 44.574219 L 308.824219 43.816406 C 309.199219 43.535156 317.648438 37.320312 325.617188 37.898438 C 313.734375 32.804688 300.871094 40.339844 300.730469 40.421875 L 300.246094 39.609375 C 300.402344 39.515625 315.96875 30.371094 329.054688 38.628906 C 331.335938 39.492188 333.25 41.0625 334.757812 43.332031 C 340.148438 51.464844 336.820312 56.984375 333.601562 62.324219 C 331.898438 65.152344 330.136719 68.082031 329.761719 71.351562 C 329.140625 76.765625 331.015625 79.53125 332.828125 82.203125 C 334.117188 84.113281 335.335938 85.914062 335.445312 88.46875 C 335.546875 91.039062 333.933594 92.464844 332.070312 94.113281 C 329.34375 96.523438 325.957031 99.519531 325.800781 107.652344 C 325.59375 118.480469 328.316406 128.894531 329.472656 132.808594 L 336.417969 134.589844 C 336.417969 134.589844 327.960938 119.847656 339.316406 109.121094 C 350.304688 98.738281 342.527344 85.15625 339.375 79.601562 C 342.082031 78.675781 346.800781 75.949219 351.089844 67.863281 C 356.144531 58.332031 347.203125 48.054688 342.914062 43.90625 " fill-opacity="1" fill-rule="nonzero"/><path fill="rgb(100%, 100%, 100%)" d="M 342.457031 252.449219 L 279.269531 238.277344 L 288.875 215.316406 C 288.875 215.316406 292.292969 195.878906 283.671875 195.691406 C 279.570312 195.59375 274.089844 199.769531 272.640625 209.394531 C 271.046875 219.972656 273.6875 236.101562 273.6875 236.101562 L 238.582031 248.589844 L 235.375 249.648438 L 212.488281 168.136719 C 199.382812 165.796875 190.089844 143.816406 186.0625 132.230469 C 198.039062 97.40625 255 101.476562 255 101.476562 L 307.886719 113.042969 C 307.886719 113.042969 329.175781 117.671875 343.902344 138.457031 C 348.378906 144.773438 352.941406 151.824219 357.125 158.59375 C 346.25 162.523438 329.863281 171.484375 327.035156 190.246094 C 323.664062 188.070312 320.867188 185.988281 319.503906 184.378906 L 307.105469 207.097656 C 307.105469 207.097656 334.480469 230.367188 342.457031 252.449219 " fill-opacity="1" fill-rule="nonzero"/><path fill="rgb(24.308777%, 35.688782%, 69.799805%)" d="M 270.105469 194.40625 L 243.652344 182.605469 L 258.140625 142.800781 L 278.078125 148.246094 L 270.105469 194.40625 " fill-opacity="1" fill-rule="nonzero"/><path fill="rgb(6.269836%, 5.879211%, 5.099487%)" d="M 306.875 206.53125 L 302.738281 205.261719 L 302.460938 206.167969 L 306.871094 207.519531 C 308.277344 208.730469 333.6875 230.8125 341.710938 251.796875 L 279.925781 237.941406 L 289.3125 215.496094 L 289.339844 215.394531 C 289.4375 214.851562 291.632812 202.039062 287.601562 197.125 C 286.59375 195.894531 285.273438 195.253906 283.683594 195.21875 C 279.027344 195.140625 273.589844 199.921875 272.171875 209.320312 C 270.722656 218.9375 272.773438 233.25 273.160156 235.789062 L 238.433594 248.140625 L 235.695312 249.042969 L 212.941406 168.007812 C 208.015625 148.925781 229.5 132.769531 229.714844 132.613281 L 229.15625 131.851562 C 228.9375 132.011719 207.507812 148.132812 211.867188 167.511719 C 210.074219 167.089844 208.351562 166.300781 206.707031 165.214844 L 210.511719 155.160156 L 209.628906 154.824219 L 205.90625 164.660156 C 202.722656 162.335938 199.839844 158.933594 197.289062 155.054688 L 205.113281 145.773438 L 204.394531 145.160156 L 196.753906 154.222656 C 194.597656 150.828125 192.683594 147.117188 191.035156 143.480469 L 197.964844 136.550781 L 197.292969 135.878906 L 190.621094 142.554688 C 188.988281 138.867188 187.628906 135.289062 186.558594 132.230469 C 198.402344 98.316406 254.398438 101.910156 254.902344 101.933594 L 307.78125 113.503906 C 307.996094 113.550781 329.070312 118.34375 343.519531 138.730469 C 347.449219 144.277344 351.789062 150.875 356.414062 158.347656 C 354.472656 159.070312 352.28125 159.984375 349.996094 161.128906 L 344.742188 155.871094 L 344.074219 156.539062 L 349.109375 161.574219 C 345.921875 163.230469 342.585938 165.324219 339.472656 167.9375 L 333.484375 162.164062 L 332.832031 162.847656 L 338.746094 168.558594 C 335.773438 171.160156 333.042969 174.265625 330.886719 177.9375 L 324.589844 173.949219 L 324.085938 174.746094 L 330.414062 178.757812 C 328.679688 181.90625 327.371094 185.453125 326.683594 189.453125 C 323.3125 187.242188 321.023438 185.441406 319.878906 184.085938 L 313.867188 174.699219 L 313.070312 175.210938 L 318.953125 184.398438 Z M 326.777344 190.648438 L 327.394531 191.042969 L 327.5 190.316406 C 330.351562 171.4375 347.386719 162.613281 357.285156 159.039062 L 357.835938 158.839844 L 357.527344 158.34375 C 352.769531 150.648438 348.316406 143.867188 344.292969 138.183594 C 329.621094 117.488281 308.199219 112.625 307.984375 112.582031 L 255.035156 101.003906 C 254.460938 100.960938 197.570312 97.308594 185.609375 132.074219 L 185.558594 132.230469 L 185.613281 132.386719 C 189.933594 144.808594 199.101562 165.933594 212.113281 168.546875 L 235.054688 250.253906 L 238.742188 249.035156 L 274.21875 236.414062 L 274.15625 236.027344 C 274.128906 235.867188 271.542969 219.851562 273.109375 209.464844 C 274.441406 200.605469 279.4375 196.066406 283.660156 196.164062 C 284.980469 196.195312 286.03125 196.703125 286.867188 197.726562 C 290.507812 202.15625 288.566406 214.289062 288.417969 215.179688 L 278.617188 238.617188 L 343.195312 253.101562 L 342.902344 252.289062 C 335.417969 231.570312 310.683594 209.582031 307.703125 206.992188 L 319.601562 185.1875 C 320.984375 186.628906 323.394531 188.457031 326.777344 190.648438 " fill-opacity="1" fill-rule="nonzero"/><path fill="rgb(83.529663%, 47.44873%, 38.038635%)" d="M 325.179688 85.164062 C 323.855469 92.292969 315.394531 97.128906 312.859375 96.769531 C 312.859375 96.769531 307.066406 105.59375 303.078125 108.851562 L 309.601562 114.53125 C 309.601562 114.53125 294.257812 139.179688 280.488281 136.886719 L 278.078125 148.246094 C 278.078125 148.246094 262.855469 151.75 258.140625 142.800781 L 262.136719 132.171875 C 262.136719 132.171875 248.480469 125.046875 255 101.476562 L 260.441406 100.269531 C 260.441406 100.269531 258.871094 97.007812 258.625 89.878906 C 258.625 89.878906 258.59375 89.265625 258.582031 88.195312 C 252.378906 85.039062 252.992188 72.484375 255.488281 71.027344 C 257.238281 70.003906 258.71875 71.535156 259.621094 72.910156 C 260.425781 67.40625 261.832031 61.28125 264.265625 55.722656 L 264.265625 56.28125 C 264.265625 56.28125 269.136719 50.359375 275.171875 47.339844 C 281.21875 44.316406 309.359375 49.03125 313.230469 61.960938 C 317.089844 74.894531 315.558594 83.359375 315.558594 83.359375 L 318.421875 81.300781 C 318.421875 81.300781 326.511719 78.035156 325.179688 85.164062 " fill-opacity="1" fill-rule="nonzero"/><path fill="rgb(100%, 100%, 100%)" d="M 278.316406 82.871094 C 278.316406 82.871094 276.265625 72.476562 268.414062 73.5625 C 260.558594 74.652344 269.496094 90.800781 278.316406 82.871094 Z M 291 85.285156 C 291 85.285156 297.519531 75.980469 304.890625 81.175781 C 312.261719 86.371094 298.25 97.492188 291 85.285156 " fill-opacity="1" fill-rule="nonzero"/><path fill="rgb(6.269836%, 5.879211%, 5.099487%)" d="M 310.105469 59.941406 C 311.191406 60.402344 312.003906 61.6875 311.816406 62.636719 C 311.652344 63.496094 310.691406 63.695312 309.917969 63.710938 C 309.015625 63.726562 308.445312 63.488281 308.152344 62.984375 C 307.757812 62.316406 307.839844 61.257812 308.132812 60.121094 C 308.757812 59.71875 309.429688 59.652344 310.105469 59.941406 Z M 279.886719 39.488281 C 272.316406 42.234375 267.425781 48.503906 264.265625 55.722656 L 262.976562 57.914062 C 262.976562 57.914062 268.46875 51.179688 274.164062 47.886719 C 274.320312 48.019531 274.488281 48.160156 274.65625 48.300781 C 274.09375 49.953125 273.621094 52.273438 274.515625 54.058594 C 275.167969 55.351562 276.421875 56.148438 278.246094 56.425781 L 278.390625 55.492188 C 276.886719 55.261719 275.867188 54.636719 275.363281 53.632812 C 274.675781 52.261719 274.988281 50.40625 275.445312 48.953125 C 277.886719 50.972656 281.167969 53.554688 283.996094 55.308594 C 283.574219 56.425781 283.347656 57.699219 283.679688 58.910156 C 284.121094 60.511719 285.449219 61.699219 287.625 62.441406 L 287.929688 61.542969 C 286.066406 60.914062 284.945312 59.945312 284.59375 58.660156 C 284.335938 57.730469 284.503906 56.726562 284.828125 55.804688 C 285.535156 56.214844 286.199219 56.554688 286.800781 56.808594 C 287.054688 57.941406 287.742188 60.015625 289.527344 61.324219 C 290.570312 62.082031 291.816406 62.464844 293.257812 62.464844 C 293.917969 62.464844 294.617188 62.382812 295.355469 62.226562 L 295.15625 61.296875 C 293.089844 61.75 291.378906 61.5 290.09375 60.5625 C 288.816406 59.632812 288.183594 58.199219 287.878906 57.167969 C 291.957031 58.160156 302.578125 57.121094 308.535156 56.417969 C 308.125 57.261719 307.628906 58.386719 307.300781 59.550781 C 306.976562 59.808594 306.648438 60.15625 306.328125 60.613281 C 305.453125 61.851562 305.210938 63.097656 305.605469 64.3125 C 306.625 67.457031 311.648438 69.191406 311.863281 69.261719 L 312.164062 68.367188 C 312.117188 68.347656 307.378906 66.710938 306.503906 64.019531 C 306.222656 63.15625 306.371094 62.289062 306.957031 61.371094 C 306.902344 62.160156 306.996094 62.886719 307.335938 63.464844 C 307.816406 64.28125 308.675781 64.675781 309.9375 64.660156 C 312.15625 64.613281 312.640625 63.355469 312.746094 62.820312 C 313.019531 61.425781 311.980469 59.710938 310.476562 59.070312 C 310.089844 58.902344 309.355469 58.691406 308.507812 58.917969 C 308.847656 57.96875 309.269531 57.046875 309.636719 56.339844 C 311.332031 58.003906 312.605469 59.875 313.230469 61.960938 C 317.089844 74.894531 315.558594 83.359375 315.558594 83.359375 L 318.421875 81.300781 C 329.65625 56.761719 303.199219 31.027344 279.886719 39.488281 " fill-opacity="1" fill-rule="nonzero"/><path fill="rgb(6.269836%, 5.879211%, 5.099487%)" d="M 287.199219 109.570312 L 286.914062 108.667969 C 280.90625 110.585938 276.910156 108.714844 276.871094 108.695312 L 276.460938 109.546875 C 276.574219 109.605469 278.445312 110.488281 281.554688 110.488281 C 283.136719 110.488281 285.042969 110.257812 287.199219 109.570312 Z M 201.789062 161.230469 L 195.101562 159.722656 L 194.894531 160.648438 L 201.582031 162.15625 Z M 364.917969 193.300781 L 363.96875 193.300781 L 363.96875 199.042969 L 364.917969 199.042969 Z M 302.085938 110.042969 L 300.335938 114.355469 L 301.21875 114.710938 L 304.089844 107.621094 L 302.816406 108.453125 C 302.664062 108.558594 287.027344 118.757812 280.222656 117.371094 C 272.867188 115.863281 266.53125 110.195312 260.851562 100.039062 L 259.796875 98.144531 L 260.347656 104.980469 L 261.289062 104.90625 L 261.082031 102.324219 C 266.636719 111.59375 272.851562 116.824219 280.035156 118.296875 C 280.523438 118.398438 281.046875 118.445312 281.605469 118.441406 C 288.007812 118.441406 298.472656 112.292969 302.085938 110.042969 Z M 272.457031 88.488281 C 272.257812 88.488281 272.097656 88.648438 272.097656 88.851562 C 272.097656 89.050781 272.257812 89.210938 272.457031 89.210938 C 272.65625 89.210938 272.820312 89.050781 272.820312 88.851562 C 272.820312 88.648438 272.65625 88.488281 272.457031 88.488281 Z M 268.113281 88.488281 C 267.839844 88.488281 267.628906 88.703125 267.628906 88.972656 C 267.628906 89.238281 267.839844 89.457031 268.113281 89.457031 C 268.378906 89.457031 268.59375 89.238281 268.59375 88.972656 C 268.59375 88.703125 268.378906 88.488281 268.113281 88.488281 Z M 264.828125 83.910156 C 264.515625 83.910156 264.265625 84.164062 264.265625 84.472656 C 264.265625 84.785156 264.515625 85.039062 264.828125 85.039062 C 265.140625 85.039062 265.390625 84.785156 265.390625 84.472656 C 265.390625 84.164062 265.140625 83.910156 264.828125 83.910156 Z M 302.074219 93.273438 C 301.828125 93.273438 301.632812 93.476562 301.632812 93.722656 C 301.632812 93.964844 301.828125 94.167969 302.074219 94.167969 C 302.320312 94.167969 302.519531 93.964844 302.519531 93.722656 C 302.519531 93.476562 302.320312 93.273438 302.074219 93.273438 Z M 298.082031 95.859375 C 297.773438 95.859375 297.519531 96.109375 297.519531 96.417969 C 297.519531 96.730469 297.773438 96.976562 298.082031 96.976562 C 298.390625 96.976562 298.640625 96.730469 298.640625 96.417969 C 298.640625 96.109375 298.390625 95.859375 298.082031 95.859375 Z M 294.15625 92.65625 C 293.8125 92.65625 293.535156 92.933594 293.535156 93.273438 C 293.535156 93.617188 293.8125 93.894531 294.15625 93.894531 C 294.496094 93.894531 294.773438 93.617188 294.773438 93.273438 C 294.773438 92.933594 294.496094 92.65625 294.15625 92.65625 Z M 279.261719 70.339844 C 279.261719 70.339844 279.203125 66.714844 277.9375 65.871094 C 276.667969 65.023438 269.660156 61.035156 268.753906 62.667969 C 267.847656 64.300781 268.753906 67.140625 269.964844 67.320312 C 271.171875 67.5 279.53125 72.664062 279.261719 70.339844 Z M 296.863281 69.296875 C 296.183594 69.386719 295.539062 69.640625 294.980469 70.039062 C 293.65625 70.996094 291.480469 72.800781 293.085938 73.382812 C 295.3125 74.1875 304.488281 73.945312 305.617188 72.539062 C 306.71875 71.160156 311.054688 67.355469 296.863281 69.296875 Z M 259.261719 80.199219 C 259.179688 76.195312 256.429688 73.277344 256.3125 73.15625 L 255.628906 73.808594 C 255.65625 73.839844 258.238281 76.578125 258.316406 80.21875 Z M 323.421875 84.390625 L 323.488281 83.441406 C 323.425781 83.433594 317.734375 83.101562 315.132812 88.722656 L 315.992188 89.121094 C 318.316406 84.105469 323.210938 84.367188 323.421875 84.390625 Z M 293.980469 104.472656 C 293.664062 104.453125 292.4375 103.621094 291.308594 102.648438 L 290.695312 103.371094 C 290.9375 103.582031 291.316406 103.890625 291.726562 104.203125 C 288.714844 105.203125 279.035156 107.726562 271.226562 102.0625 L 270.671875 102.828125 C 274.652344 105.71875 279.085938 106.574219 282.949219 106.574219 C 287.675781 106.574219 291.535156 105.296875 292.679688 104.871094 C 293.183594 105.183594 293.65625 105.417969 293.980469 105.417969 Z M 285.515625 98.40625 L 281.648438 96.234375 L 281.183594 97.058594 L 285.050781 99.230469 Z M 277.644531 97.132812 C 276.871094 96.640625 276.480469 96.074219 276.449219 95.402344 C 276.378906 93.765625 278.476562 91.800781 279.289062 91.179688 L 278.714844 90.425781 C 278.578125 90.527344 275.398438 92.980469 275.507812 95.441406 C 275.546875 96.4375 276.097656 97.273438 277.136719 97.929688 Z M 271.511719 73.039062 C 265.390625 71.992188 264.265625 71.027344 264.265625 71.027344 C 264.265625 71.027344 264.886719 75.285156 265.785156 75.25 C 265.785156 75.25 269.339844 73.707031 272.5625 74.730469 C 273.835938 75.136719 275 76.503906 275.945312 77.996094 C 275.90625 77.996094 269.839844 77.890625 269.792969 84.054688 C 269.792969 84.054688 274.027344 87.460938 278.316406 82.871094 C 278.316406 82.871094 277.632812 74.085938 271.511719 73.039062 Z M 309.679688 80.53125 C 309.679688 80.53125 308.957031 84.402344 307.34375 84.476562 C 307.34375 84.476562 307.207031 84.105469 306.898438 83.597656 L 307.34375 84.476562 C 305.335938 92.921875 297.996094 90.683594 297.996094 90.683594 C 298.25 81.910156 304.730469 82.378906 306.132812 82.582031 C 305.078125 81.425781 303.257812 80.28125 300.339844 80.855469 C 295.027344 81.902344 291 85.285156 291 85.285156 C 291 85.285156 293.578125 80.257812 298.570312 79.269531 C 303.5625 78.277344 305.417969 81.339844 309.679688 80.53125 " fill-opacity="1" fill-rule="nonzero"/><path fill="rgb(6.269836%, 5.879211%, 5.099487%)" d="M 253.300781 106.566406 L 246.816406 105.660156 L 246.683594 106.59375 L 253.171875 107.507812 Z M 256.949219 128.644531 L 250.867188 132.875 L 251.410156 133.652344 L 257.488281 129.421875 Z M 313.238281 126.542969 L 313.699219 125.71875 L 305.578125 121.136719 C 308.164062 117.757812 309.804688 115.105469 310.003906 114.78125 L 309.195312 114.285156 C 309.042969 114.535156 293.824219 139.105469 280.585938 136.421875 L 280.121094 136.328125 L 274.351562 164.789062 L 275.277344 164.976562 L 280.863281 137.433594 C 282.917969 137.761719 284.992188 137.5 287.039062 136.832031 L 288.828125 143.058594 L 289.738281 142.796875 L 287.929688 136.507812 C 290.210938 135.628906 292.445312 134.265625 294.566406 132.625 L 298.953125 138.734375 L 299.71875 138.179688 L 295.3125 132.039062 C 297.058594 130.613281 298.730469 129.03125 300.265625 127.410156 L 305.632812 133.101562 L 306.320312 132.453125 L 300.910156 126.71875 C 302.417969 125.078125 303.796875 123.425781 304.996094 121.894531 Z M 262.347656 131.75 L 262.726562 131.941406 L 252.746094 158.757812 L 251.859375 158.429688 L 261.546875 132.402344 C 257.394531 130.15625 255.070312 126.605469 253.847656 122.703125 L 247.308594 124.160156 L 247.101562 123.242188 L 253.578125 121.792969 C 252.980469 119.542969 252.726562 117.207031 252.683594 114.945312 L 245.890625 114.152344 L 245.996094 113.214844 L 252.671875 113.988281 C 252.710938 107.246094 254.511719 101.445312 254.550781 101.328125 L 255.453125 101.617188 C 255.378906 101.847656 248.304688 124.609375 262.347656 131.75 " fill-opacity="1" fill-rule="nonzero"/><path fill="rgb(24.308777%, 35.688782%, 69.799805%)" d="M 261.652344 103.339844 C 261.652344 105.6875 259.75 107.59375 257.398438 107.59375 C 255.054688 107.59375 253.148438 105.6875 253.148438 103.339844 C 253.148438 100.988281 255.054688 99.085938 257.398438 99.085938 C 259.75 99.085938 261.652344 100.988281 261.652344 103.339844 Z M 265.113281 112.214844 C 265.113281 114.566406 263.214844 116.472656 260.863281 116.472656 C 258.515625 116.472656 256.613281 114.566406 256.613281 112.214844 C 256.613281 109.867188 258.515625 107.960938 260.863281 107.960938 C 263.214844 107.960938 265.113281 109.867188 265.113281 112.214844 Z M 270.089844 119.96875 C 270.089844 122.316406 268.183594 124.222656 265.839844 124.222656 C 263.492188 124.222656 261.585938 122.316406 261.585938 119.96875 C 261.585938 117.617188 263.492188 115.714844 265.839844 115.714844 C 268.183594 115.714844 270.089844 117.617188 270.089844 119.96875 Z M 306.027344 116.003906 C 306.027344 118.355469 304.121094 120.261719 301.777344 120.261719 C 299.425781 120.261719 297.519531 118.355469 297.519531 116.003906 C 297.519531 113.65625 299.425781 111.753906 301.777344 111.753906 C 304.121094 111.753906 306.027344 113.65625 306.027344 116.003906 Z M 298.230469 122.152344 C 298.230469 124.503906 296.328125 126.40625 293.980469 126.40625 C 291.632812 126.40625 289.730469 124.503906 289.730469 122.152344 C 289.730469 119.800781 291.632812 117.898438 293.980469 117.898438 C 296.328125 117.898438 298.230469 119.800781 298.230469 122.152344 Z M 289.28125 125.167969 C 289.28125 127.515625 287.378906 129.421875 285.03125 129.421875 C 282.683594 129.421875 280.777344 127.515625 280.777344 125.167969 C 280.777344 122.820312 282.683594 120.914062 285.03125 120.914062 C 287.378906 120.914062 289.28125 122.820312 289.28125 125.167969 Z M 274.984375 121.339844 C 272.640625 121.339844 270.734375 123.246094 270.734375 125.59375 C 270.734375 127.945312 272.640625 129.847656 274.984375 129.847656 C 277.332031 129.847656 279.238281 127.945312 279.238281 125.59375 C 279.238281 123.246094 277.332031 121.339844 274.984375 121.339844 Z M 319.648438 80.90625 L 317.71875 81.804688 C 321.324219 74.429688 320.855469 63.890625 316.742188 55.773438 C 312.25 46.914062 304.171875 41.03125 293.988281 39.203125 C 272.097656 35.277344 262.757812 59.59375 262.679688 59.820312 L 262.332031 57.53125 C 262.414062 57.285156 270.859375 33.136719 294.324219 37.339844 C 305.101562 39.273438 313.664062 45.515625 318.425781 54.914062 C 322.871094 63.683594 323.566406 72.894531 319.648438 80.90625 " fill-opacity="1" fill-rule="nonzero"/><path fill="rgb(6.269836%, 5.879211%, 5.099487%)" d="M 416.015625 312.371094 L 321.195312 336.957031 L 246.917969 356.210938 L 223.800781 362.199219 L 195.136719 369.632812 L 29.964844 412.457031 L 29.726562 411.550781 L 194.367188 368.855469 L 223.160156 361.398438 L 246.484375 355.347656 L 321.195312 335.980469 L 415.777344 311.453125 L 416.015625 312.371094 " fill-opacity="1" fill-rule="nonzero"/><path fill="rgb(6.269836%, 5.879211%, 5.099487%)" d="M 186.875 371.464844 C 186.609375 370.96875 160.40625 321.78125 171.929688 286.546875 C 183.492188 251.207031 243.886719 245.710938 244.496094 245.660156 L 244.574219 246.601562 C 243.972656 246.652344 184.199219 252.101562 172.832031 286.839844 C 161.433594 321.6875 187.445312 370.527344 187.710938 371.015625 L 186.875 371.464844 " fill-opacity="1" fill-rule="nonzero"/><path fill="rgb(6.269836%, 5.879211%, 5.099487%)" d="M 287.054688 169.714844 C 284.226562 163.011719 279.425781 162.980469 276.410156 163.78125 C 278.027344 162.605469 280.273438 161.542969 282.492188 162.417969 C 287.324219 164.324219 292.398438 175.027344 291.492188 212.699219 C 290.542969 193.757812 289.101562 174.574219 287.054688 169.714844 Z M 286.738281 213.519531 C 286.738281 216.3125 284.449219 218.59375 281.65625 218.59375 C 281.410156 218.59375 281.167969 218.574219 280.929688 218.535156 C 278.488281 218.1875 274.894531 216.8125 274.894531 214.269531 L 275.539062 208.625 C 275.539062 205.835938 278.605469 202.019531 281.386719 202.019531 C 282.351562 202.019531 283.53125 203.636719 284.308594 204.117188 C 284.648438 204.316406 284.957031 204.566406 285.242188 204.851562 C 286.171875 205.773438 286.738281 207.042969 286.738281 208.4375 Z M 271.265625 163.683594 C 263.351562 159.875 256.5 157.824219 250.589844 157.21875 C 260.195312 157.167969 267.769531 161.332031 271.265625 163.683594 Z M 293.015625 254.949219 C 293.015625 254.949219 292.710938 240.902344 292.015625 224.132812 C 293.886719 185.730469 290.808594 164.679688 282.835938 161.539062 C 278.859375 159.972656 275.074219 163.449219 273.789062 164.824219 C 273.722656 164.859375 273.6875 164.882812 273.6875 164.882812 L 273.996094 164.527344 C 273.839844 164.390625 260.03125 152.632812 242.101562 157.402344 C 198.621094 164.539062 221.023438 269.9375 221.023438 269.9375 L 248.136719 264.292969 C 243.363281 256.179688 243.675781 247.773438 243.683594 247.625 L 244.777344 247.054688 C 244.769531 247.199219 244.402344 255.878906 249.285156 264.054688 L 288.585938 255.871094 C 289.234375 248.65625 288.585938 242.421875 288.585938 242.421875 L 289.457031 242.644531 C 289.511719 243.117188 290.140625 248.878906 289.59375 255.664062 L 293.015625 254.949219 " fill-opacity="1" fill-rule="nonzero"/><path fill="rgb(100%, 100%, 100%)" d="M 231.449219 260.296875 C 231.34375 259.933594 220.871094 223.789062 222.296875 195.359375 C 223.710938 167.324219 245.832031 167.269531 246.746094 167.289062 L 246.753906 166.34375 C 246.753906 166.34375 246.746094 166.34375 246.746094 166.34375 C 246.035156 166.34375 222.796875 166.644531 221.355469 195.308594 C 219.917969 223.902344 230.433594 260.199219 230.539062 260.5625 Z M 239.765625 255.855469 L 232.398438 223.796875 L 233.320312 223.585938 L 240.691406 255.644531 L 239.765625 255.855469 " fill-opacity="1" fill-rule="nonzero"/><g clip-path="url(#clip-0)"><path fill="rgb(100%, 100%, 100%)" d="M 241.558594 410.328125 C 241.558594 410.328125 234.328125 414.371094 241.558594 423.960938 C 248.789062 433.550781 271.089844 443.328125 279.277344 436.402344 C 287.46875 429.480469 281.257812 407.886719 260.59375 403.917969 C 239.929688 399.941406 241.558594 410.328125 241.558594 410.328125 Z M 396.8125 330.359375 L 386.144531 357.441406 L 286.460938 385.222656 C 281.117188 387.878906 279.546875 384.902344 279.546875 384.902344 C 279.546875 384.902344 268.230469 361.40625 266.394531 358.851562 C 264.554688 356.304688 268.210938 354.6875 268.210938 354.6875 L 307.550781 343.605469 L 378.632812 325.925781 L 396.8125 330.359375 " fill-opacity="1" fill-rule="nonzero"/></g><g clip-path="url(#clip-1)"><path fill="rgb(6.269836%, 5.879211%, 5.099487%)" d="M 278.972656 436.042969 C 278.738281 436.242188 278.480469 436.425781 278.210938 436.59375 C 277.457031 433.890625 274.648438 424.714844 270.703125 422.925781 C 275.246094 421.089844 279.703125 421.203125 281.144531 421.304688 C 281.34375 421.867188 281.519531 422.421875 281.664062 422.964844 C 283.089844 428.417969 282.058594 433.433594 278.972656 436.042969 Z M 268.945312 438.113281 C 266.097656 437.796875 263 436.976562 259.917969 435.8125 C 261.546875 429.195312 265.320312 425.550781 269.28125 423.566406 C 269.308594 423.566406 269.335938 423.566406 269.363281 423.566406 C 272.921875 423.566406 276.238281 432.960938 277.363281 437.070312 C 275.230469 438.132812 272.371094 438.5 268.945312 438.113281 Z M 241.9375 423.679688 C 239.425781 420.347656 238.425781 417.367188 238.957031 414.8125 C 239.53125 412.050781 241.769531 410.753906 241.792969 410.742188 L 242.074219 410.582031 L 242.023438 410.257812 C 242.019531 410.234375 241.679688 407.886719 243.652344 405.976562 C 244.957031 404.714844 247.464844 403.488281 252.292969 403.488281 C 254.507812 403.488281 257.207031 403.746094 260.503906 404.378906 C 271.652344 406.523438 278.132812 413.824219 280.785156 420.351562 C 278.804688 420.285156 273.960938 420.398438 269.257812 422.621094 C 269.253906 422.621094 269.25 422.621094 269.242188 422.621094 L 269.242188 422.628906 C 264.953125 424.660156 260.796875 428.457031 259.035156 435.46875 C 252.089844 432.695312 245.363281 428.222656 241.9375 423.679688 Z M 282.582031 422.722656 C 280.664062 415.40625 273.78125 405.96875 260.6875 403.453125 C 251.953125 401.773438 245.996094 402.394531 242.996094 405.296875 C 241.105469 407.125 241.019531 409.28125 241.0625 410.085938 C 240.375 410.550781 238.582031 411.988281 238.03125 414.601562 C 237.4375 417.4375 238.496094 420.683594 241.179688 424.246094 C 246.402344 431.175781 259.070312 437.957031 268.839844 439.054688 C 269.765625 439.15625 270.65625 439.207031 271.503906 439.207031 C 274.914062 439.207031 277.675781 438.378906 279.585938 436.765625 C 282.953125 433.917969 284.101562 428.535156 282.582031 422.722656 Z M 377.394531 332.226562 L 371.28125 333.933594 L 369.648438 330.757812 L 375.214844 329.199219 C 375.511719 329.113281 375.898438 329.3125 376.0625 329.644531 Z M 379.535156 336.394531 L 373.425781 338.105469 L 371.710938 334.765625 L 377.820312 333.054688 Z M 381.570312 340.347656 L 375.457031 342.058594 L 373.851562 338.933594 L 379.964844 337.222656 Z M 383.605469 344.300781 L 377.492188 346.015625 L 375.886719 342.890625 L 381.996094 341.179688 Z M 385.191406 347.398438 C 385.363281 347.726562 385.253906 348.0625 384.957031 348.148438 L 379.390625 349.703125 L 377.917969 346.847656 L 384.027344 345.132812 Z M 370.527344 334.148438 L 366.824219 335.183594 L 365.191406 332.003906 L 368.890625 330.96875 Z M 372.667969 338.316406 L 368.96875 339.351562 L 367.253906 336.015625 L 370.953125 334.976562 Z M 374.703125 342.273438 L 371 343.308594 L 369.390625 340.183594 L 373.09375 339.148438 Z M 376.734375 346.226562 L 373.03125 347.265625 L 371.425781 344.136719 L 375.128906 343.101562 Z M 378.632812 349.917969 L 374.929688 350.953125 L 373.457031 348.09375 L 377.160156 347.058594 Z M 366.066406 335.394531 L 362.1875 336.480469 L 360.554688 333.304688 L 364.433594 332.21875 Z M 368.210938 339.566406 L 364.332031 340.652344 L 362.613281 337.3125 L 366.496094 336.226562 Z M 370.242188 343.519531 L 366.363281 344.605469 L 364.757812 341.480469 L 368.636719 340.394531 Z M 372.273438 347.476562 L 368.398438 348.5625 L 366.789062 345.4375 L 370.671875 344.351562 Z M 374.175781 351.164062 L 370.292969 352.253906 L 368.828125 349.390625 L 372.703125 348.308594 Z M 361.429688 336.695312 L 357.855469 337.695312 L 356.222656 334.515625 L 359.796875 333.515625 Z M 363.574219 340.863281 L 360 341.863281 L 358.285156 338.527344 L 361.859375 337.523438 Z M 365.605469 344.816406 L 362.03125 345.820312 L 360.429688 342.695312 L 364 341.691406 Z M 367.640625 348.777344 L 364.070312 349.773438 L 362.460938 346.652344 L 366.035156 345.648438 Z M 369.539062 352.464844 L 365.964844 353.464844 L 364.496094 350.601562 L 368.070312 349.605469 Z M 357.101562 337.90625 L 353.707031 338.859375 L 352.070312 335.679688 L 355.46875 334.730469 Z M 359.246094 342.078125 L 355.847656 343.027344 L 354.132812 339.6875 L 357.527344 338.738281 Z M 361.277344 346.03125 L 357.882812 346.980469 L 356.273438 343.855469 L 359.671875 342.90625 Z M 363.3125 349.984375 L 359.914062 350.9375 L 358.308594 347.8125 L 361.703125 346.859375 Z M 365.207031 353.675781 L 361.816406 354.625 L 360.34375 351.769531 L 363.742188 350.816406 Z M 352.949219 339.070312 L 349.597656 340.007812 L 347.964844 336.828125 L 351.3125 335.890625 Z M 355.09375 343.238281 L 351.742188 344.175781 L 350.027344 340.835938 L 353.375 339.902344 Z M 357.125 347.195312 L 353.777344 348.128906 L 352.167969 345.003906 L 355.515625 344.070312 Z M 359.15625 351.152344 L 355.808594 352.089844 L 354.203125 348.960938 L 357.554688 348.023438 Z M 361.058594 354.839844 L 357.707031 355.777344 L 356.238281 352.917969 L 359.585938 351.980469 Z M 348.84375 340.21875 L 345.011719 341.292969 L 343.378906 338.113281 L 347.207031 337.039062 Z M 350.984375 344.386719 L 347.15625 345.460938 L 345.441406 342.121094 L 349.269531 341.050781 Z M 353.019531 348.34375 L 349.1875 349.417969 L 347.585938 346.292969 L 351.414062 345.21875 Z M 355.054688 352.300781 L 351.222656 353.371094 L 349.617188 350.246094 L 353.445312 349.171875 Z M 356.949219 355.992188 L 353.121094 357.0625 L 351.652344 354.203125 L 355.480469 353.128906 Z M 344.257812 341.503906 L 340.472656 342.566406 L 338.839844 339.382812 L 342.625 338.328125 Z M 346.398438 345.671875 L 342.617188 346.730469 L 340.902344 343.394531 L 344.683594 342.335938 Z M 348.429688 349.628906 L 344.648438 350.6875 L 343.046875 347.5625 L 346.828125 346.503906 Z M 350.46875 353.582031 L 346.6875 354.644531 L 345.078125 351.515625 L 348.859375 350.460938 Z M 352.363281 357.273438 L 348.582031 358.335938 L 347.113281 355.472656 L 350.894531 354.414062 Z M 339.714844 342.773438 L 310.121094 351.066406 L 308.484375 347.886719 L 338.085938 339.59375 Z M 341.859375 346.941406 L 338.078125 348.003906 L 336.363281 344.664062 L 340.144531 343.605469 Z M 343.894531 350.898438 L 340.113281 351.957031 L 338.507812 348.832031 L 342.289062 347.773438 Z M 345.929688 354.855469 L 342.148438 355.917969 L 340.539062 352.789062 L 344.320312 351.730469 Z M 347.824219 358.546875 L 344.042969 359.605469 L 342.574219 356.746094 L 346.355469 355.6875 Z M 337.320312 348.214844 L 333.703125 349.226562 L 331.984375 345.890625 L 335.605469 344.878906 Z M 339.355469 352.171875 L 335.734375 353.183594 L 334.128906 350.058594 L 337.75 349.042969 Z M 341.390625 356.128906 L 337.769531 357.140625 L 336.160156 354.011719 L 339.78125 353 Z M 343.285156 359.816406 L 339.664062 360.832031 L 338.195312 357.972656 L 341.816406 356.957031 Z M 332.945312 349.441406 L 329.519531 350.398438 L 327.800781 347.066406 L 331.230469 346.101562 Z M 334.976562 353.398438 L 331.550781 354.355469 L 329.945312 351.230469 L 333.371094 350.269531 Z M 337.011719 357.351562 L 333.585938 358.3125 L 331.976562 355.183594 L 335.40625 354.226562 Z M 338.910156 361.042969 L 335.480469 362.003906 L 334.011719 359.144531 L 337.4375 358.183594 Z M 328.761719 350.609375 L 325.332031 351.570312 L 323.617188 348.238281 L 327.046875 347.277344 Z M 330.792969 354.566406 L 327.367188 355.527344 L 325.757812 352.402344 L 329.1875 351.441406 Z M 332.828125 358.523438 L 329.398438 359.484375 L 327.792969 356.355469 L 331.222656 355.398438 Z M 334.726562 362.214844 L 331.296875 363.175781 L 329.824219 360.3125 L 333.253906 359.355469 Z M 324.574219 351.78125 L 321.003906 352.785156 L 319.285156 349.449219 L 322.859375 348.449219 Z M 326.609375 355.738281 L 323.035156 356.742188 L 321.429688 353.617188 L 325 352.613281 Z M 328.640625 359.695312 L 325.070312 360.699219 L 323.464844 357.574219 L 327.035156 356.570312 Z M 330.539062 363.386719 L 326.96875 364.386719 L 325.496094 361.527344 L 329.066406 360.527344 Z M 320.246094 353 L 316.949219 353.921875 L 315.230469 350.585938 L 318.53125 349.660156 Z M 322.277344 356.953125 L 318.980469 357.875 L 317.375 354.753906 L 320.671875 353.828125 Z M 324.3125 360.910156 L 321.015625 361.832031 L 319.40625 358.707031 L 322.707031 357.785156 Z M 326.210938 364.597656 L 322.910156 365.523438 L 321.441406 362.664062 L 324.738281 361.738281 Z M 316.191406 354.132812 L 312.261719 355.234375 L 310.546875 351.898438 L 314.476562 350.796875 Z M 318.222656 358.089844 L 314.292969 359.191406 L 312.691406 356.066406 L 316.617188 354.964844 Z M 320.257812 362.042969 L 316.332031 363.144531 L 314.722656 360.019531 L 318.652344 358.917969 Z M 322.15625 365.734375 L 318.226562 366.835938 L 316.753906 363.972656 L 320.683594 362.875 Z M 309.363281 351.277344 L 305.550781 352.34375 L 303.910156 349.167969 L 307.730469 348.101562 Z M 311.507812 355.449219 L 307.691406 356.515625 L 305.972656 353.175781 L 309.789062 352.109375 Z M 313.539062 359.398438 L 309.726562 360.46875 L 308.117188 357.34375 L 311.933594 356.277344 Z M 315.574219 363.355469 L 311.757812 364.425781 L 310.152344 361.296875 L 313.964844 360.230469 Z M 317.472656 367.046875 L 313.65625 368.117188 L 312.1875 365.253906 L 316 364.183594 Z M 304.792969 352.558594 L 300.914062 353.644531 L 299.277344 350.464844 L 303.15625 349.378906 Z M 306.933594 356.726562 L 303.054688 357.8125 L 301.339844 354.476562 L 305.214844 353.386719 Z M 308.96875 360.683594 L 305.089844 361.765625 L 303.484375 358.640625 L 307.359375 357.554688 Z M 311 364.636719 L 307.125 365.722656 L 305.515625 362.597656 L 309.394531 361.511719 Z M 312.898438 368.328125 L 309.019531 369.414062 L 307.550781 366.550781 L 311.429688 365.46875 Z M 300.15625 353.855469 L 296.664062 354.832031 L 295.03125 351.65625 L 298.523438 350.675781 Z M 302.296875 358.023438 L 298.808594 359 L 297.089844 355.664062 L 300.582031 354.6875 Z M 304.332031 361.976562 L 300.839844 362.957031 L 299.234375 359.832031 L 302.726562 358.851562 Z M 306.367188 365.9375 L 302.875 366.914062 L 301.269531 363.785156 L 304.757812 362.808594 Z M 308.261719 369.625 L 304.773438 370.605469 L 303.300781 367.746094 L 306.792969 366.765625 Z M 295.90625 355.046875 L 293.058594 355.84375 L 291.421875 352.664062 L 294.273438 351.867188 Z M 298.050781 359.214844 L 295.199219 360.015625 L 293.484375 356.675781 L 296.335938 355.875 Z M 300.082031 363.167969 L 297.238281 363.96875 L 295.628906 360.84375 L 298.476562 360.042969 Z M 302.121094 367.125 L 299.269531 367.921875 L 297.660156 364.800781 L 300.511719 364 Z M 304.015625 370.816406 L 301.164062 371.613281 L 299.695312 368.75 L 302.542969 367.957031 Z M 292.300781 356.054688 L 289.195312 356.925781 L 287.558594 353.746094 L 290.667969 352.878906 Z M 294.445312 360.226562 L 291.335938 361.09375 L 289.621094 357.753906 L 292.726562 356.886719 Z M 296.480469 364.179688 L 293.371094 365.050781 L 291.765625 361.921875 L 294.871094 361.054688 Z M 298.511719 368.132812 L 295.402344 369.007812 L 293.800781 365.878906 L 296.902344 365.007812 Z M 300.40625 371.824219 L 297.304688 372.699219 L 295.832031 369.835938 L 298.941406 368.964844 Z M 288.441406 357.136719 L 285.078125 358.082031 L 283.441406 354.898438 L 286.800781 353.957031 Z M 290.582031 361.304688 L 287.21875 362.246094 L 285.5 358.914062 L 288.863281 357.96875 Z M 292.617188 365.261719 L 289.25 366.203125 L 287.644531 363.074219 L 291.007812 362.136719 Z M 294.648438 369.21875 L 291.285156 370.160156 L 289.679688 367.03125 L 293.042969 366.09375 Z M 296.546875 372.90625 L 293.183594 373.851562 L 291.710938 370.988281 L 295.074219 370.046875 Z M 284.320312 358.289062 L 280.632812 359.324219 L 278.996094 356.144531 L 282.683594 355.109375 Z M 286.460938 362.460938 L 282.773438 363.492188 L 281.058594 360.15625 L 284.746094 359.121094 Z M 288.496094 366.414062 L 284.808594 367.445312 L 283.203125 364.320312 L 286.886719 363.289062 Z M 290.527344 370.371094 L 286.84375 371.402344 L 285.234375 368.277344 L 288.921875 367.242188 Z M 292.429688 374.0625 L 288.738281 375.09375 L 287.269531 372.234375 L 290.957031 371.199219 Z M 279.875 359.539062 L 276.125 360.585938 L 274.492188 357.40625 L 278.242188 356.355469 Z M 282.019531 363.703125 L 278.269531 364.753906 L 276.554688 361.414062 L 280.300781 360.367188 Z M 284.050781 367.65625 L 280.300781 368.707031 L 278.691406 365.585938 L 282.445312 364.53125 Z M 286.085938 371.617188 L 282.335938 372.664062 L 280.730469 369.539062 L 284.476562 368.488281 Z M 287.980469 375.304688 L 284.234375 376.355469 L 282.761719 373.496094 L 286.515625 372.445312 Z M 275.371094 360.796875 L 271.789062 361.800781 L 270.464844 359.21875 C 270.296875 358.890625 270.398438 358.554688 270.703125 358.46875 L 273.738281 357.621094 Z M 277.511719 364.964844 L 273.933594 365.96875 L 272.21875 362.628906 L 275.796875 361.628906 Z M 279.546875 368.921875 L 275.964844 369.925781 L 274.363281 366.800781 L 277.9375 365.796875 Z M 281.578125 372.878906 L 278.003906 373.878906 L 276.394531 370.757812 L 279.972656 369.75 Z M 283.476562 376.570312 L 280.445312 377.417969 C 280.140625 377.5 279.761719 377.300781 279.589844 376.972656 L 278.425781 374.707031 L 282.003906 373.707031 Z M 374.789062 328.367188 L 270.273438 357.640625 C 269.554688 357.839844 269.300781 358.644531 269.707031 359.429688 L 278.832031 377.1875 C 279.242188 377.972656 280.152344 378.449219 280.871094 378.246094 L 385.382812 348.976562 C 386.097656 348.777344 386.355469 347.96875 385.949219 347.183594 L 376.820312 329.429688 C 376.417969 328.644531 375.503906 328.164062 374.789062 328.367188 Z M 387.992188 352.839844 C 388.257812 353.355469 388.089844 353.878906 387.621094 354.011719 L 382.363281 355.484375 L 380.898438 352.640625 L 386.15625 351.167969 C 386.628906 351.035156 387.222656 351.351562 387.488281 351.859375 Z M 381.605469 355.695312 L 377.902344 356.734375 L 376.441406 353.890625 L 380.144531 352.851562 Z M 377.148438 356.945312 L 373.265625 358.03125 L 371.804688 355.1875 L 375.683594 354.101562 Z M 372.507812 358.242188 L 368.9375 359.246094 L 367.472656 356.402344 L 371.046875 355.398438 Z M 368.179688 359.457031 L 364.78125 360.410156 L 363.324219 357.5625 L 366.71875 356.613281 Z M 364.027344 360.621094 L 360.679688 361.558594 L 359.214844 358.714844 L 362.566406 357.777344 Z M 359.921875 361.769531 L 356.09375 362.84375 L 354.628906 360 L 358.460938 358.925781 Z M 355.335938 363.054688 L 351.554688 364.113281 L 350.089844 361.269531 L 353.871094 360.210938 Z M 350.796875 364.324219 L 347.015625 365.382812 L 345.550781 362.542969 L 349.332031 361.480469 Z M 346.257812 365.597656 L 342.636719 366.609375 L 341.175781 363.765625 L 344.792969 362.753906 Z M 341.878906 366.820312 L 338.453125 367.78125 L 336.992188 364.941406 L 340.417969 363.976562 Z M 337.699219 367.992188 L 334.269531 368.957031 L 332.804688 366.113281 L 336.234375 365.148438 Z M 333.511719 369.164062 L 329.9375 370.167969 L 328.476562 367.324219 L 332.050781 366.324219 Z M 329.183594 370.378906 L 325.882812 371.304688 L 324.417969 368.460938 L 327.71875 367.535156 Z M 325.125 371.515625 L 321.199219 372.617188 L 319.734375 369.773438 L 323.664062 368.671875 Z M 320.441406 372.828125 L 316.625 373.894531 L 315.164062 371.050781 L 318.980469 369.984375 Z M 315.867188 374.105469 L 311.992188 375.191406 L 310.53125 372.351562 L 314.410156 371.261719 Z M 311.234375 375.402344 L 307.742188 376.382812 L 306.28125 373.539062 L 309.773438 372.5625 Z M 306.988281 376.59375 L 304.136719 377.394531 L 302.671875 374.550781 L 305.523438 373.75 Z M 303.378906 377.605469 L 300.273438 378.476562 L 298.8125 375.632812 L 301.917969 374.761719 Z M 299.515625 378.6875 L 296.152344 379.628906 L 294.691406 376.785156 L 298.058594 375.84375 Z M 295.394531 379.839844 L 291.710938 380.871094 L 290.25 378.03125 L 293.9375 376.996094 Z M 290.953125 381.085938 L 287.207031 382.132812 L 285.742188 379.289062 L 289.492188 378.242188 Z M 286.449219 382.347656 L 283.71875 383.109375 C 283.25 383.242188 282.65625 382.933594 282.390625 382.417969 L 281.886719 381.4375 C 281.625 380.925781 281.789062 380.398438 282.257812 380.265625 L 284.984375 379.503906 Z M 385.734375 350.335938 L 281.832031 379.4375 C 280.945312 379.6875 280.628906 380.679688 281.128906 381.648438 L 281.636719 382.628906 C 282.132812 383.601562 283.257812 384.191406 284.144531 383.941406 L 388.046875 354.839844 C 388.933594 354.59375 389.246094 353.597656 388.75 352.628906 L 388.246094 351.648438 C 387.742188 350.675781 386.621094 350.089844 385.734375 350.335938 Z M 391.289062 352.730469 C 391.972656 354.058594 391.542969 355.414062 390.335938 355.75 L 283.253906 385.742188 C 282.042969 386.078125 280.503906 385.277344 279.824219 383.949219 L 266.71875 358.457031 C 266.035156 357.132812 266.464844 355.777344 267.675781 355.441406 L 374.753906 325.449219 C 375.964844 325.109375 377.503906 325.914062 378.183594 327.242188 Z M 374.328125 324.617188 L 267.246094 354.609375 C 265.621094 355.0625 265.042969 356.886719 265.960938 358.671875 L 279.066406 384.164062 C 279.984375 385.945312 282.054688 387.027344 283.679688 386.570312 L 390.761719 356.582031 C 392.386719 356.125 392.964844 354.304688 392.046875 352.519531 L 378.941406 327.027344 C 378.027344 325.246094 375.953125 324.164062 374.328125 324.617188 " fill-opacity="1" fill-rule="nonzero"/></g><path fill="rgb(92.939758%, 66.668701%, 59.609985%)" d="M 227.804688 401.898438 C 234.308594 418.453125 231.328125 410.160156 241.71875 420.671875 C 252.105469 431.183594 261.40625 434.042969 263.21875 434.042969 C 265.03125 434.042969 262.332031 430.257812 262.332031 430.257812 C 262.332031 430.257812 266.117188 436.460938 269.015625 436.460938 C 271.914062 436.460938 270.464844 432.714844 270.464844 432.714844 C 270.464844 432.714844 270.464844 433.800781 273.484375 433.558594 C 276.503906 433.316406 270.585938 418.9375 270.226562 416.886719 C 269.863281 414.828125 265.804688 408.21875 265.804688 408.21875 L 271.914062 409.796875 C 271.914062 409.796875 278.597656 426.632812 280.851562 425.34375 C 283.109375 424.054688 281.253906 406.730469 276.746094 403.027344 C 272.234375 399.320312 246.308594 390.296875 246.308594 390.296875 C 246.308594 390.296875 221.304688 385.34375 227.804688 401.898438 Z M 284.304688 204.097656 C 283.527344 203.613281 282.617188 203.339844 281.652344 203.339844 C 278.875 203.339844 276.582031 205.621094 276.582031 208.414062 L 276.582031 213.5 C 276.582031 216.042969 278.484375 218.160156 280.925781 218.511719 L 281.429688 247.652344 C 260.074219 265.882812 244.769531 247.308594 244.769531 247.308594 L 251.234375 243.707031 L 250.828125 234.8125 C 241.300781 237.664062 235.585938 236.492188 228.921875 222.0625 C 222.261719 207.636719 227.96875 202.601562 227.96875 202.601562 C 227.96875 202.601562 223.613281 181.097656 243.472656 174.839844 C 248.699219 173.191406 253.261719 173.597656 257.15625 175.074219 C 260.480469 172.558594 268.878906 168.136719 268.878906 168.136719 C 268.878906 168.136719 261.746094 173.171875 258.035156 175.417969 C 268.417969 179.863281 273.8125 191.847656 273.8125 191.847656 C 273.8125 191.847656 278.304688 184.09375 285.921875 189.804688 C 290.726562 193.410156 287.410156 199.847656 284.304688 204.097656 " fill-opacity="1" fill-rule="nonzero"/><path fill="rgb(6.269836%, 5.879211%, 5.099487%)" d="M 266.117188 407.859375 L 264.414062 406.375 L 263.792969 407.089844 L 265.496094 408.574219 Z M 263.441406 431.078125 L 253.535156 417.492188 L 252.769531 418.050781 L 262.679688 431.636719 Z M 270.023438 432.882812 C 269.980469 432.769531 265.832031 421.800781 264.804688 419.664062 C 263.796875 417.570312 258.320312 411.050781 258.265625 410.988281 L 258.988281 410.375 C 259.21875 410.648438 264.601562 417.050781 265.65625 419.253906 C 266.699219 421.425781 270.738281 432.09375 270.910156 432.546875 L 270.023438 432.882812 " fill-opacity="1" fill-rule="nonzero"/><path fill="rgb(24.308777%, 35.688782%, 69.799805%)" d="M 289.476562 242.8125 C 289.71875 245.089844 291.738281 266.6875 282.203125 275.269531 C 279.675781 277.542969 276.554688 278.6875 272.878906 278.6875 C 271.402344 278.6875 269.835938 278.5 268.1875 278.132812 C 244.121094 272.742188 243.648438 250.515625 243.679688 247.890625 C 239.355469 250.066406 206.835938 266.503906 205.476562 269.214844 C 204.027344 272.113281 184.941406 357.667969 186.390625 360.328125 C 186.777344 361.046875 189.949219 364.371094 194.367188 368.855469 C 194.613281 369.109375 194.871094 369.371094 195.136719 369.632812 C 207.304688 381.925781 227.804688 401.902344 227.804688 401.902344 L 246.304688 390.292969 L 223.800781 362.199219 L 223.160156 361.398438 L 212.242188 347.757812 L 225.695312 314.890625 L 246.484375 355.347656 L 321.195312 335.980469 L 321.195312 250.121094 Z M 251.234375 243.707031 L 251.015625 240.449219 L 281.078125 227.15625 L 281.3125 240.929688 L 288.601562 242.609375 C 288.800781 244.75 290.589844 266.445312 281.574219 274.5625 C 278.269531 277.535156 273.832031 278.425781 268.394531 277.207031 C 245.042969 271.980469 244.730469 249.863281 244.769531 247.308594 L 251.234375 243.707031 " fill-opacity="1" fill-rule="nonzero"/><path fill="rgb(100%, 100%, 100%)" d="M 245.503906 221.019531 C 236.886719 224.082031 234.789062 218.523438 234.789062 218.523438 C 241.152344 219.007812 258.707031 205.714844 258.707031 205.714844 C 258.707031 205.714844 254.117188 217.957031 245.503906 221.019531 " fill-opacity="1" fill-rule="nonzero"/><path fill="rgb(6.269836%, 5.879211%, 5.099487%)" d="M 262.390625 432.574219 C 262.382812 432.5625 262.386719 432.503906 262.363281 432.390625 C 262.125 431.234375 261.3125 429.683594 260.285156 429.078125 C 260.035156 428.933594 259.796875 428.859375 259.566406 428.859375 C 259.457031 428.859375 259.355469 428.875 259.25 428.902344 L 259.25 428.90625 C 258.945312 429 258.289062 429.304688 258.179688 429.671875 C 258.132812 429.851562 258.222656 430.078125 258.460938 430.347656 C 259.589844 431.621094 261.917969 432.773438 262.390625 432.574219 Z M 263.289062 432.199219 C 263.457031 433.003906 263.023438 433.316406 262.824219 433.414062 C 262.675781 433.492188 262.488281 433.523438 262.285156 433.523438 C 260.941406 433.523438 258.660156 432 257.75 430.972656 C 257.175781 430.320312 257.171875 429.765625 257.269531 429.410156 C 257.542969 428.460938 258.8125 428.046875 258.972656 428 C 259.550781 427.824219 260.171875 427.910156 260.765625 428.261719 C 262.042969 429.015625 263 430.808594 263.289062 432.199219 Z M 269.320312 432.097656 L 269.320312 432.101562 C 269.320312 432.101562 268.804688 430.84375 267.730469 429.980469 C 267.277344 429.648438 266.519531 429.269531 266.019531 429.269531 C 265.910156 429.269531 265.8125 429.289062 265.730469 429.332031 C 265.46875 429.480469 265.355469 429.984375 265.414062 430.746094 C 265.527344 432.304688 266.992188 433.890625 268.285156 434.398438 C 268.78125 434.59375 269.179688 434.597656 269.378906 434.414062 C 269.496094 434.300781 269.847656 433.800781 269.320312 432.097656 Z M 270.210938 431.785156 C 270.71875 433.414062 270.652344 434.519531 270.023438 435.105469 C 269.746094 435.363281 269.382812 435.492188 268.960938 435.492188 C 268.652344 435.492188 268.308594 435.421875 267.941406 435.28125 C 266.351562 434.65625 264.617188 432.820312 264.46875 430.816406 C 264.378906 429.632812 264.648438 428.851562 265.273438 428.503906 C 266.398438 427.875 268.109375 429.082031 268.300781 429.222656 L 268.316406 429.230469 C 269.609375 430.265625 270.1875 431.722656 270.210938 431.785156 Z M 272.511719 431.769531 C 271.855469 431.367188 271.394531 430.605469 271.136719 429.523438 C 270.867188 428.375 270.921875 427.53125 271.296875 427.085938 C 271.632812 426.6875 272.160156 426.726562 272.179688 426.722656 L 272.257812 425.777344 C 272.21875 425.769531 271.25 425.695312 270.585938 426.460938 C 269.992188 427.148438 269.867188 428.253906 270.21875 429.742188 C 270.53125 431.089844 271.144531 432.046875 272.03125 432.582031 C 272.652344 432.960938 273.285156 433.050781 273.746094 433.050781 C 274.132812 433.050781 274.394531 432.988281 274.417969 432.980469 L 274.1875 432.0625 C 274.179688 432.0625 273.316406 432.265625 272.511719 431.769531 Z M 279.660156 420.019531 C 279.292969 417.445312 281.363281 417.050781 281.601562 417.015625 L 281.53125 416.546875 L 281.464844 416.074219 C 281.410156 416.085938 280.121094 416.277344 279.308594 417.367188 C 278.761719 418.09375 278.5625 419.035156 278.722656 420.152344 C 279.222656 423.589844 281.355469 424.039062 281.441406 424.054688 L 281.628906 423.125 C 281.566406 423.113281 280.058594 422.75 279.660156 420.019531 Z M 221.660156 389.945312 L 231.160156 399.175781 L 231.820312 398.496094 L 222.316406 389.261719 Z M 225.359375 385.15625 L 236.707031 396.445312 L 237.375 395.773438 L 226.023438 384.480469 Z M 231.152344 381.652344 L 242.253906 392.960938 L 242.925781 392.296875 L 231.828125 380.992188 Z M 254.542969 249.714844 L 255.488281 249.714844 L 255.488281 238.679688 L 254.542969 238.679688 Z M 262.847656 250.117188 L 262.847656 235.425781 L 261.902344 235.425781 L 261.902344 250.117188 Z M 269.023438 254.292969 L 269.96875 254.292969 L 269.96875 232.277344 L 269.023438 232.277344 Z M 275.09375 246.570312 L 276.039062 246.570312 L 276.039062 229.589844 L 275.09375 229.589844 Z M 239.910156 301.25 L 227.164062 312.902344 L 234.648438 297.207031 L 233.792969 296.800781 L 224.21875 316.875 L 240.546875 301.949219 Z M 280.84375 240.945312 L 280.984375 246.144531 L 281.929688 246.117188 L 281.789062 240.917969 Z M 229.785156 186.503906 L 229.132812 188.125 L 232.863281 185.261719 C 232.863281 185.261719 230.835938 185.1875 229.785156 186.503906 Z M 234.167969 198.042969 C 232.898438 198.792969 231.238281 199.941406 230.917969 200.972656 C 230.808594 201.3125 230.839844 201.644531 230.996094 201.929688 C 231.820312 203.410156 235.339844 207.253906 235.488281 207.417969 L 236.1875 206.777344 C 236.152344 206.738281 232.589844 202.851562 231.824219 201.46875 C 231.808594 201.445312 231.777344 201.390625 231.820312 201.253906 C 232.109375 200.328125 234.566406 198.828125 236.046875 198.09375 L 235.628906 197.246094 C 235.480469 197.320312 234.925781 197.597656 234.25 197.996094 C 233.496094 197.578125 229.644531 195.539062 227.582031 196.625 L 224.484375 195.6875 L 227.804688 199.042969 C 227.804688 199.042969 230.941406 197.585938 234.167969 198.042969 Z M 252.585938 178.898438 C 244.292969 177.210938 240.226562 182.605469 240.226562 182.605469 C 243.8125 180.429688 260.882812 180.59375 252.585938 178.898438 Z M 244.535156 195.335938 C 248 192.113281 257.019531 190.660156 257.019531 190.660156 L 257.742188 186.152344 L 254.359375 188.40625 C 247.433594 189.691406 244.535156 195.335938 244.535156 195.335938 Z M 276.132812 197.933594 L 277.039062 198.210938 C 278.511719 193.34375 283.421875 193.773438 283.625 193.789062 L 283.71875 192.851562 C 283.664062 192.84375 277.835938 192.3125 276.132812 197.933594 Z M 269.191406 221.582031 C 269.070312 221.691406 256.796875 232.214844 250.667969 234.367188 L 250.980469 235.257812 C 257.28125 233.050781 269.296875 222.734375 269.808594 222.300781 Z M 257.582031 207.136719 C 253.445312 210.152344 241.429688 218.566406 235.578125 218.992188 C 236.417969 220.273438 238.992188 222.832031 245.34375 220.574219 C 251.820312 218.273438 256.019531 210.511719 257.582031 207.136719 Z M 245.660156 221.46875 C 243.761719 222.140625 242.160156 222.40625 240.816406 222.40625 C 235.820312 222.40625 234.367188 218.738281 234.351562 218.691406 L 234.089844 217.996094 L 234.828125 218.050781 C 234.933594 218.058594 235.046875 218.0625 235.15625 218.0625 C 241.539062 218.0625 258.253906 205.46875 258.425781 205.339844 L 259.121094 204.808594 C 257.789062 204.175781 256.804688 203.433594 256.730469 203.375 L 257.304688 202.625 C 257.332031 202.644531 260.398438 204.964844 262.855469 204.742188 L 262.941406 205.6875 C 262.800781 205.699219 262.660156 205.703125 262.519531 205.703125 C 261.488281 205.703125 260.421875 205.382812 259.492188 204.976562 L 259.152344 205.882812 C 258.960938 206.386719 254.382812 218.367188 245.660156 221.46875 Z M 242.234375 204.574219 L 237.964844 203.363281 L 238.222656 202.453125 L 242.488281 203.664062 L 242.234375 204.574219 " fill-opacity="1" fill-rule="nonzero"/><path fill="rgb(100%, 100%, 100%)" d="M 437.964844 326.632812 L 327.394531 357.519531 C 322.800781 358.800781 318.253906 355.324219 318.289062 350.550781 L 318.996094 253.363281 C 319.019531 250.023438 321.347656 247.136719 324.609375 246.410156 L 440.316406 220.636719 C 444.980469 219.601562 449.339844 223.328125 449.035156 228.097656 L 443.199219 320.175781 C 443.003906 323.222656 440.90625 325.8125 437.964844 326.632812 " fill-opacity="1" fill-rule="nonzero"/><path fill="rgb(6.269836%, 5.879211%, 5.099487%)" d="M 405.15625 296.355469 C 404.910156 296.355469 404.664062 296.378906 404.417969 296.433594 L 375.46875 302.945312 C 373.933594 303.289062 372.863281 304.625 372.863281 306.199219 L 372.863281 330.097656 C 372.863281 331.140625 373.339844 332.105469 374.164062 332.742188 C 374.992188 333.378906 376.046875 333.589844 377.058594 333.324219 L 405.332031 325.820312 C 406.753906 325.445312 407.773438 324.15625 407.8125 322.6875 L 408.480469 299.792969 C 408.511719 298.753906 408.070312 297.777344 407.269531 297.117188 C 406.664062 296.617188 405.921875 296.355469 405.15625 296.355469 Z M 376.1875 334.386719 C 375.261719 334.386719 374.351562 334.078125 373.585938 333.492188 C 372.527344 332.671875 371.917969 331.4375 371.917969 330.097656 L 371.917969 306.199219 C 371.917969 304.179688 373.292969 302.460938 375.261719 302.019531 L 404.210938 295.511719 C 405.507812 295.222656 406.84375 295.535156 407.871094 296.386719 C 408.898438 297.234375 409.46875 298.488281 409.429688 299.820312 L 408.757812 322.714844 C 408.703125 324.601562 407.394531 326.253906 405.578125 326.734375 L 377.300781 334.238281 C 376.933594 334.335938 376.558594 334.386719 376.1875 334.386719 " fill-opacity="1" fill-rule="nonzero"/><path fill="rgb(100%, 100%, 100%)" d="M 429.894531 370.417969 L 372.238281 392.050781 C 370.902344 392.550781 369.414062 392.457031 368.152344 391.789062 L 351.109375 382.789062 C 347.1875 380.722656 347.703125 374.945312 351.929688 373.601562 L 413.34375 354.105469 C 414.605469 353.707031 415.972656 353.820312 417.148438 354.425781 L 430.433594 361.300781 C 434.28125 363.289062 433.949219 368.898438 429.894531 370.417969 " fill-opacity="1" fill-rule="nonzero"/><g clip-path="url(#clip-2)"><path fill="rgb(6.269836%, 5.879211%, 5.099487%)" d="M 325.457031 353.8125 C 325.453125 352.878906 325.214844 259.898438 325.457031 256.089844 C 325.664062 252.769531 327.9375 251.488281 328.28125 251.3125 L 443.464844 225.34375 L 443.253906 224.421875 L 328.023438 250.402344 L 327.925781 250.433594 C 327.800781 250.492188 324.765625 251.925781 324.511719 256.03125 C 324.269531 259.867188 324.5 349.980469 324.511719 353.816406 Z M 441.894531 220.933594 C 441.40625 220.933594 440.910156 220.992188 440.417969 221.101562 L 324.714844 246.871094 C 321.644531 247.554688 319.488281 250.226562 319.46875 253.367188 L 318.761719 350.554688 C 318.746094 352.679688 319.707031 354.636719 321.390625 355.933594 C 323.078125 357.222656 325.21875 357.628906 327.265625 357.0625 L 437.839844 326.179688 C 440.582031 325.410156 442.546875 322.988281 442.726562 320.144531 L 448.5625 228.066406 C 448.699219 225.945312 447.847656 223.933594 446.230469 222.546875 C 445 221.492188 443.472656 220.933594 441.894531 220.933594 Z M 325.441406 358.261719 C 323.789062 358.261719 322.175781 357.722656 320.816406 356.683594 C 318.890625 355.210938 317.796875 352.972656 317.816406 350.546875 L 318.523438 253.359375 C 318.542969 249.777344 321.011719 246.726562 324.507812 245.945312 L 440.214844 220.171875 C 442.578125 219.648438 445 220.25 446.847656 221.832031 C 448.691406 223.410156 449.664062 225.707031 449.507812 228.132812 L 443.671875 320.203125 C 443.464844 323.449219 441.226562 326.21875 438.09375 327.089844 L 327.523438 357.972656 C 326.832031 358.164062 326.132812 358.261719 325.441406 358.261719 " fill-opacity="1" fill-rule="nonzero"/></g><path fill="rgb(6.269836%, 5.879211%, 5.099487%)" d="M 371.382812 388.289062 L 351.613281 377.679688 L 351.167969 378.515625 L 370.9375 389.125 Z M 414.582031 354.347656 C 414.214844 354.375 413.84375 354.441406 413.488281 354.554688 L 352.070312 374.058594 C 350.300781 374.617188 349.097656 376.117188 348.933594 377.964844 C 348.769531 379.816406 349.683594 381.503906 351.328125 382.371094 L 368.371094 391.371094 C 369.515625 391.972656 370.867188 392.0625 372.070312 391.609375 L 429.726562 369.976562 C 431.425781 369.339844 432.546875 367.820312 432.65625 366.007812 C 432.761719 364.199219 431.832031 362.554688 430.21875 361.722656 L 416.929688 354.847656 C 416.195312 354.46875 415.386719 354.300781 414.582031 354.347656 Z M 370.828125 392.832031 C 369.835938 392.890625 368.832031 392.683594 367.933594 392.210938 L 350.886719 383.210938 C 348.902344 382.160156 347.792969 380.117188 347.992188 377.882812 C 348.191406 375.644531 349.644531 373.832031 351.785156 373.152344 L 413.199219 353.652344 C 414.59375 353.214844 416.070312 353.335938 417.367188 354.007812 L 430.652344 360.878906 C 432.597656 361.890625 433.730469 363.875 433.601562 366.0625 C 433.472656 368.257812 432.113281 370.09375 430.058594 370.863281 L 372.40625 392.496094 C 371.894531 392.683594 371.363281 392.796875 370.828125 392.832031 " fill-opacity="1" fill-rule="nonzero"/><path fill="rgb(100%, 100%, 100%)" d="M 399.800781 312.449219 L 403.5625 320.511719 C 403.757812 320.9375 403.859375 321.398438 403.859375 321.863281 L 403.859375 363.929688 C 403.859375 365.308594 402.980469 366.53125 401.675781 366.964844 L 388.957031 371.207031 C 386.847656 371.910156 384.683594 370.300781 384.75 368.078125 L 385.972656 326.074219 C 385.988281 325.617188 385.902344 325.164062 385.726562 324.746094 L 382.800781 317.765625 C 382.039062 315.949219 383.082031 313.886719 384.992188 313.417969 L 396.148438 310.695312 C 397.625 310.332031 399.15625 311.066406 399.800781 312.449219 " fill-opacity="1" fill-rule="nonzero"/><path fill="rgb(6.269836%, 5.879211%, 5.099487%)" d="M 396.257812 311.152344 L 385.105469 313.878906 C 384.328125 314.066406 383.675781 314.582031 383.316406 315.296875 C 382.957031 316.011719 382.925781 316.84375 383.238281 317.578125 L 386.160156 324.558594 C 386.363281 325.042969 386.460938 325.558594 386.445312 326.085938 L 385.222656 368.09375 C 385.195312 368.996094 385.597656 369.820312 386.320312 370.359375 C 387.042969 370.898438 387.953125 371.039062 388.808594 370.757812 L 401.527344 366.515625 C 402.636719 366.144531 403.386719 365.105469 403.386719 363.929688 L 403.386719 321.863281 C 403.386719 321.460938 403.300781 321.074219 403.132812 320.710938 L 399.371094 312.648438 C 398.828125 311.472656 397.519531 310.84375 396.257812 311.152344 Z M 387.933594 371.851562 C 387.160156 371.851562 386.402344 371.597656 385.753906 371.117188 C 384.777344 370.394531 384.238281 369.28125 384.277344 368.0625 L 385.5 326.0625 C 385.511719 325.667969 385.441406 325.289062 385.289062 324.925781 L 382.367188 317.945312 C 381.949219 316.953125 381.988281 315.832031 382.472656 314.871094 C 382.957031 313.910156 383.832031 313.210938 384.878906 312.960938 L 396.035156 310.234375 C 397.722656 309.824219 399.492188 310.667969 400.230469 312.25 L 403.988281 320.3125 C 404.21875 320.800781 404.332031 321.324219 404.332031 321.863281 L 404.332031 363.929688 C 404.332031 365.511719 403.324219 366.914062 401.824219 367.414062 L 389.105469 371.660156 C 388.71875 371.785156 388.324219 371.851562 387.933594 371.851562 " fill-opacity="1" fill-rule="nonzero"/></svg>